<?xml version="1.0" encoding="utf-8" standalone="no"?>
<!DOCTYPE svg PUBLIC "-//W3C//DTD SVG 1.1//EN"
  "http://www.w3.org/Graphics/SVG/1.1/DTD/svg11.dtd">
<svg xmlns:xlink="http://www.w3.org/1999/xlink" width="460.8pt" height="345.6pt" viewBox="0 0 460.8 345.6" xmlns="http://www.w3.org/2000/svg" version="1.1">
 <metadata>
  <rdf:RDF xmlns:dc="http://purl.org/dc/elements/1.1/" xmlns:cc="http://creativecommons.org/ns#" xmlns:rdf="http://www.w3.org/1999/02/22-rdf-syntax-ns#">
   <cc:Work>
    <dc:type rdf:resource="http://purl.org/dc/dcmitype/StillImage"/>
    <dc:date>2024-08-07T09:37:58.133755</dc:date>
    <dc:format>image/svg+xml</dc:format>
    <dc:creator>
     <cc:Agent>
      <dc:title>Matplotlib v3.8.2, https://matplotlib.org/</dc:title>
     </cc:Agent>
    </dc:creator>
   </cc:Work>
  </rdf:RDF>
 </metadata>
 <defs>
  <style type="text/css">*{stroke-linejoin: round; stroke-linecap: butt}</style>
 </defs>
 <g id="figure_1">
  <g id="patch_1">
   <path d="M 0 345.6 
L 460.8 345.6 
L 460.8 0 
L 0 0 
z
" style="fill: #ffffff"/>
  </g>
  <g id="axes_1">
   <g id="patch_2">
    <path d="M 52.94 298.067 
L 421.515 298.067 
L 421.515 55.88 
L 52.94 55.88 
z
" style="fill: #ffffff"/>
   </g>
   <g id="matplotlib.axis_1">
    <g id="xtick_1">
     <g id="line2d_1">
      <path d="M 52.94 298.067 
L 52.94 55.88 
" clip-path="url(#p8ec9753ccf)" style="fill: none; stroke: #b0b0b0; stroke-width: 0.8; stroke-linecap: square"/>
     </g>
     <g id="line2d_2">
      <defs>
       <path id="m9a3781af04" d="M 0 0 
L 0 3.5 
" style="stroke: #000000; stroke-width: 0.8"/>
      </defs>
      <g>
       <use xlink:href="#m9a3781af04" x="52.94" y="298.067" style="stroke: #000000; stroke-width: 0.8"/>
      </g>
     </g>
     <g id="text_1">
      <!-- 0 -->
      <g transform="translate(49.75875 312.665437) scale(0.1 -0.1)">
       <defs>
        <path id="DejaVuSans-30" d="M 2034 4250 
Q 1547 4250 1301 3770 
Q 1056 3291 1056 2328 
Q 1056 1369 1301 889 
Q 1547 409 2034 409 
Q 2525 409 2770 889 
Q 3016 1369 3016 2328 
Q 3016 3291 2770 3770 
Q 2525 4250 2034 4250 
z
M 2034 4750 
Q 2819 4750 3233 4129 
Q 3647 3509 3647 2328 
Q 3647 1150 3233 529 
Q 2819 -91 2034 -91 
Q 1250 -91 836 529 
Q 422 1150 422 2328 
Q 422 3509 836 4129 
Q 1250 4750 2034 4750 
z
" transform="scale(0.015625)"/>
       </defs>
       <use xlink:href="#DejaVuSans-30"/>
      </g>
     </g>
    </g>
    <g id="xtick_2">
     <g id="line2d_3">
      <path d="M 99.011875 298.067 
L 99.011875 55.88 
" clip-path="url(#p8ec9753ccf)" style="fill: none; stroke: #b0b0b0; stroke-width: 0.8; stroke-linecap: square"/>
     </g>
     <g id="line2d_4">
      <g>
       <use xlink:href="#m9a3781af04" x="99.011875" y="298.067" style="stroke: #000000; stroke-width: 0.8"/>
      </g>
     </g>
     <g id="text_2">
      <!-- $0.12\pi$ -->
      <g transform="translate(84.861875 312.665437) scale(0.1 -0.1)">
       <defs>
        <path id="DejaVuSans-2e" d="M 684 794 
L 1344 794 
L 1344 0 
L 684 0 
L 684 794 
z
" transform="scale(0.015625)"/>
        <path id="DejaVuSans-31" d="M 794 531 
L 1825 531 
L 1825 4091 
L 703 3866 
L 703 4441 
L 1819 4666 
L 2450 4666 
L 2450 531 
L 3481 531 
L 3481 0 
L 794 0 
L 794 531 
z
" transform="scale(0.015625)"/>
        <path id="DejaVuSans-32" d="M 1228 531 
L 3431 531 
L 3431 0 
L 469 0 
L 469 531 
Q 828 903 1448 1529 
Q 2069 2156 2228 2338 
Q 2531 2678 2651 2914 
Q 2772 3150 2772 3378 
Q 2772 3750 2511 3984 
Q 2250 4219 1831 4219 
Q 1534 4219 1204 4116 
Q 875 4013 500 3803 
L 500 4441 
Q 881 4594 1212 4672 
Q 1544 4750 1819 4750 
Q 2544 4750 2975 4387 
Q 3406 4025 3406 3419 
Q 3406 3131 3298 2873 
Q 3191 2616 2906 2266 
Q 2828 2175 2409 1742 
Q 1991 1309 1228 531 
z
" transform="scale(0.015625)"/>
        <path id="DejaVuSans-Oblique-3c0" d="M 584 3500 
L 3938 3500 
L 3825 2925 
L 3384 2925 
L 2966 775 
Q 2922 550 2981 450 
Q 3038 353 3209 353 
Q 3256 353 3325 363 
Q 3397 369 3419 372 
L 3338 -44 
Q 3222 -84 3103 -103 
Q 2981 -122 2866 -122 
Q 2491 -122 2388 81 
Q 2284 288 2391 838 
L 2797 2925 
L 1506 2925 
L 938 0 
L 350 0 
L 919 2925 
L 472 2925 
L 584 3500 
z
" transform="scale(0.015625)"/>
       </defs>
       <use xlink:href="#DejaVuSans-30" transform="translate(0 0.78125)"/>
       <use xlink:href="#DejaVuSans-2e" transform="translate(63.623047 0.78125)"/>
       <use xlink:href="#DejaVuSans-31" transform="translate(95.410156 0.78125)"/>
       <use xlink:href="#DejaVuSans-32" transform="translate(159.033203 0.78125)"/>
       <use xlink:href="#DejaVuSans-Oblique-3c0" transform="translate(222.65625 0.78125)"/>
      </g>
     </g>
    </g>
    <g id="xtick_3">
     <g id="line2d_5">
      <path d="M 145.08375 298.067 
L 145.08375 55.88 
" clip-path="url(#p8ec9753ccf)" style="fill: none; stroke: #b0b0b0; stroke-width: 0.8; stroke-linecap: square"/>
     </g>
     <g id="line2d_6">
      <g>
       <use xlink:href="#m9a3781af04" x="145.08375" y="298.067" style="stroke: #000000; stroke-width: 0.8"/>
      </g>
     </g>
     <g id="text_3">
      <!-- $\frac{\pi}{4}$ -->
      <g transform="translate(142.18375 313.467) scale(0.1 -0.1)">
       <defs>
        <path id="DejaVuSans-34" d="M 2419 4116 
L 825 1625 
L 2419 1625 
L 2419 4116 
z
M 2253 4666 
L 3047 4666 
L 3047 1625 
L 3713 1625 
L 3713 1100 
L 3047 1100 
L 3047 0 
L 2419 0 
L 2419 1100 
L 313 1100 
L 313 1709 
L 2253 4666 
z
" transform="scale(0.015625)"/>
       </defs>
       <use xlink:href="#DejaVuSans-Oblique-3c0" transform="translate(1 45.71875) scale(0.7)"/>
       <use xlink:href="#DejaVuSans-34" transform="translate(0 -37.9) scale(0.7)"/>
       <path d="M 0 19.384375 
L 0 25.634375 
L 44.536133 25.634375 
L 44.536133 19.384375 
L 0 19.384375 
z
"/>
      </g>
     </g>
    </g>
    <g id="xtick_4">
     <g id="line2d_7">
      <path d="M 191.155625 298.067 
L 191.155625 55.88 
" clip-path="url(#p8ec9753ccf)" style="fill: none; stroke: #b0b0b0; stroke-width: 0.8; stroke-linecap: square"/>
     </g>
     <g id="line2d_8">
      <g>
       <use xlink:href="#m9a3781af04" x="191.155625" y="298.067" style="stroke: #000000; stroke-width: 0.8"/>
      </g>
     </g>
     <g id="text_4">
      <!-- $0.38\pi$ -->
      <g transform="translate(177.005625 312.665437) scale(0.1 -0.1)">
       <defs>
        <path id="DejaVuSans-33" d="M 2597 2516 
Q 3050 2419 3304 2112 
Q 3559 1806 3559 1356 
Q 3559 666 3084 287 
Q 2609 -91 1734 -91 
Q 1441 -91 1130 -33 
Q 819 25 488 141 
L 488 750 
Q 750 597 1062 519 
Q 1375 441 1716 441 
Q 2309 441 2620 675 
Q 2931 909 2931 1356 
Q 2931 1769 2642 2001 
Q 2353 2234 1838 2234 
L 1294 2234 
L 1294 2753 
L 1863 2753 
Q 2328 2753 2575 2939 
Q 2822 3125 2822 3475 
Q 2822 3834 2567 4026 
Q 2313 4219 1838 4219 
Q 1578 4219 1281 4162 
Q 984 4106 628 3988 
L 628 4550 
Q 988 4650 1302 4700 
Q 1616 4750 1894 4750 
Q 2613 4750 3031 4423 
Q 3450 4097 3450 3541 
Q 3450 3153 3228 2886 
Q 3006 2619 2597 2516 
z
" transform="scale(0.015625)"/>
        <path id="DejaVuSans-38" d="M 2034 2216 
Q 1584 2216 1326 1975 
Q 1069 1734 1069 1313 
Q 1069 891 1326 650 
Q 1584 409 2034 409 
Q 2484 409 2743 651 
Q 3003 894 3003 1313 
Q 3003 1734 2745 1975 
Q 2488 2216 2034 2216 
z
M 1403 2484 
Q 997 2584 770 2862 
Q 544 3141 544 3541 
Q 544 4100 942 4425 
Q 1341 4750 2034 4750 
Q 2731 4750 3128 4425 
Q 3525 4100 3525 3541 
Q 3525 3141 3298 2862 
Q 3072 2584 2669 2484 
Q 3125 2378 3379 2068 
Q 3634 1759 3634 1313 
Q 3634 634 3220 271 
Q 2806 -91 2034 -91 
Q 1263 -91 848 271 
Q 434 634 434 1313 
Q 434 1759 690 2068 
Q 947 2378 1403 2484 
z
M 1172 3481 
Q 1172 3119 1398 2916 
Q 1625 2713 2034 2713 
Q 2441 2713 2670 2916 
Q 2900 3119 2900 3481 
Q 2900 3844 2670 4047 
Q 2441 4250 2034 4250 
Q 1625 4250 1398 4047 
Q 1172 3844 1172 3481 
z
" transform="scale(0.015625)"/>
       </defs>
       <use xlink:href="#DejaVuSans-30" transform="translate(0 0.78125)"/>
       <use xlink:href="#DejaVuSans-2e" transform="translate(63.623047 0.78125)"/>
       <use xlink:href="#DejaVuSans-33" transform="translate(95.410156 0.78125)"/>
       <use xlink:href="#DejaVuSans-38" transform="translate(159.033203 0.78125)"/>
       <use xlink:href="#DejaVuSans-Oblique-3c0" transform="translate(222.65625 0.78125)"/>
      </g>
     </g>
    </g>
    <g id="xtick_5">
     <g id="line2d_9">
      <path d="M 237.2275 298.067 
L 237.2275 55.88 
" clip-path="url(#p8ec9753ccf)" style="fill: none; stroke: #b0b0b0; stroke-width: 0.8; stroke-linecap: square"/>
     </g>
     <g id="line2d_10">
      <g>
       <use xlink:href="#m9a3781af04" x="237.2275" y="298.067" style="stroke: #000000; stroke-width: 0.8"/>
      </g>
     </g>
     <g id="text_5">
      <!-- $\frac{\pi}{2}$ -->
      <g transform="translate(234.3275 313.467) scale(0.1 -0.1)">
       <use xlink:href="#DejaVuSans-Oblique-3c0" transform="translate(1 45.71875) scale(0.7)"/>
       <use xlink:href="#DejaVuSans-32" transform="translate(0 -38.81875) scale(0.7)"/>
       <path d="M 0 19.384375 
L 0 25.634375 
L 44.536133 25.634375 
L 44.536133 19.384375 
L 0 19.384375 
z
"/>
      </g>
     </g>
    </g>
    <g id="xtick_6">
     <g id="line2d_11">
      <path d="M 283.299375 298.067 
L 283.299375 55.88 
" clip-path="url(#p8ec9753ccf)" style="fill: none; stroke: #b0b0b0; stroke-width: 0.8; stroke-linecap: square"/>
     </g>
     <g id="line2d_12">
      <g>
       <use xlink:href="#m9a3781af04" x="283.299375" y="298.067" style="stroke: #000000; stroke-width: 0.8"/>
      </g>
     </g>
     <g id="text_6">
      <!-- $0.62\pi$ -->
      <g transform="translate(269.149375 312.665437) scale(0.1 -0.1)">
       <defs>
        <path id="DejaVuSans-36" d="M 2113 2584 
Q 1688 2584 1439 2293 
Q 1191 2003 1191 1497 
Q 1191 994 1439 701 
Q 1688 409 2113 409 
Q 2538 409 2786 701 
Q 3034 994 3034 1497 
Q 3034 2003 2786 2293 
Q 2538 2584 2113 2584 
z
M 3366 4563 
L 3366 3988 
Q 3128 4100 2886 4159 
Q 2644 4219 2406 4219 
Q 1781 4219 1451 3797 
Q 1122 3375 1075 2522 
Q 1259 2794 1537 2939 
Q 1816 3084 2150 3084 
Q 2853 3084 3261 2657 
Q 3669 2231 3669 1497 
Q 3669 778 3244 343 
Q 2819 -91 2113 -91 
Q 1303 -91 875 529 
Q 447 1150 447 2328 
Q 447 3434 972 4092 
Q 1497 4750 2381 4750 
Q 2619 4750 2861 4703 
Q 3103 4656 3366 4563 
z
" transform="scale(0.015625)"/>
       </defs>
       <use xlink:href="#DejaVuSans-30" transform="translate(0 0.78125)"/>
       <use xlink:href="#DejaVuSans-2e" transform="translate(63.623047 0.78125)"/>
       <use xlink:href="#DejaVuSans-36" transform="translate(95.410156 0.78125)"/>
       <use xlink:href="#DejaVuSans-32" transform="translate(159.033203 0.78125)"/>
       <use xlink:href="#DejaVuSans-Oblique-3c0" transform="translate(222.65625 0.78125)"/>
      </g>
     </g>
    </g>
    <g id="xtick_7">
     <g id="line2d_13">
      <path d="M 329.37125 298.067 
L 329.37125 55.88 
" clip-path="url(#p8ec9753ccf)" style="fill: none; stroke: #b0b0b0; stroke-width: 0.8; stroke-linecap: square"/>
     </g>
     <g id="line2d_14">
      <g>
       <use xlink:href="#m9a3781af04" x="329.37125" y="298.067" style="stroke: #000000; stroke-width: 0.8"/>
      </g>
     </g>
     <g id="text_7">
      <!-- $0.75\pi$ -->
      <g transform="translate(315.57125 312.665437) scale(0.1 -0.1)">
       <defs>
        <path id="DejaVuSans-37" d="M 525 4666 
L 3525 4666 
L 3525 4397 
L 1831 0 
L 1172 0 
L 2766 4134 
L 525 4134 
L 525 4666 
z
" transform="scale(0.015625)"/>
        <path id="DejaVuSans-35" d="M 691 4666 
L 3169 4666 
L 3169 4134 
L 1269 4134 
L 1269 2991 
Q 1406 3038 1543 3061 
Q 1681 3084 1819 3084 
Q 2600 3084 3056 2656 
Q 3513 2228 3513 1497 
Q 3513 744 3044 326 
Q 2575 -91 1722 -91 
Q 1428 -91 1123 -41 
Q 819 9 494 109 
L 494 744 
Q 775 591 1075 516 
Q 1375 441 1709 441 
Q 2250 441 2565 725 
Q 2881 1009 2881 1497 
Q 2881 1984 2565 2268 
Q 2250 2553 1709 2553 
Q 1456 2553 1204 2497 
Q 953 2441 691 2322 
L 691 4666 
z
" transform="scale(0.015625)"/>
       </defs>
       <use xlink:href="#DejaVuSans-30" transform="translate(0 0.78125)"/>
       <use xlink:href="#DejaVuSans-2e" transform="translate(63.623047 0.78125)"/>
       <use xlink:href="#DejaVuSans-37" transform="translate(87.660156 0.78125)"/>
       <use xlink:href="#DejaVuSans-35" transform="translate(151.283203 0.78125)"/>
       <use xlink:href="#DejaVuSans-Oblique-3c0" transform="translate(214.90625 0.78125)"/>
      </g>
     </g>
    </g>
    <g id="xtick_8">
     <g id="line2d_15">
      <path d="M 375.443125 298.067 
L 375.443125 55.88 
" clip-path="url(#p8ec9753ccf)" style="fill: none; stroke: #b0b0b0; stroke-width: 0.8; stroke-linecap: square"/>
     </g>
     <g id="line2d_16">
      <g>
       <use xlink:href="#m9a3781af04" x="375.443125" y="298.067" style="stroke: #000000; stroke-width: 0.8"/>
      </g>
     </g>
     <g id="text_8">
      <!-- $0.88\pi$ -->
      <g transform="translate(361.393125 312.665437) scale(0.1 -0.1)">
       <use xlink:href="#DejaVuSans-30" transform="translate(0 0.78125)"/>
       <use xlink:href="#DejaVuSans-2e" transform="translate(63.623047 0.78125)"/>
       <use xlink:href="#DejaVuSans-38" transform="translate(92.785156 0.78125)"/>
       <use xlink:href="#DejaVuSans-38" transform="translate(156.408203 0.78125)"/>
       <use xlink:href="#DejaVuSans-Oblique-3c0" transform="translate(220.03125 0.78125)"/>
      </g>
     </g>
    </g>
    <g id="xtick_9">
     <g id="line2d_17">
      <path d="M 421.515 298.067 
L 421.515 55.88 
" clip-path="url(#p8ec9753ccf)" style="fill: none; stroke: #b0b0b0; stroke-width: 0.8; stroke-linecap: square"/>
     </g>
     <g id="line2d_18">
      <g>
       <use xlink:href="#m9a3781af04" x="421.515" y="298.067" style="stroke: #000000; stroke-width: 0.8"/>
      </g>
     </g>
     <g id="text_9">
      <!-- $\pi$ -->
      <g transform="translate(418.465 312.665437) scale(0.1 -0.1)">
       <use xlink:href="#DejaVuSans-Oblique-3c0" transform="translate(0 0.3125)"/>
      </g>
     </g>
    </g>
    <g id="text_10">
     <!-- Normalized Frequency (π radians/sample) -->
     <g transform="translate(132.979844 329.065437) scale(0.1 -0.1)">
      <defs>
       <path id="DejaVuSans-4e" d="M 628 4666 
L 1478 4666 
L 3547 763 
L 3547 4666 
L 4159 4666 
L 4159 0 
L 3309 0 
L 1241 3903 
L 1241 0 
L 628 0 
L 628 4666 
z
" transform="scale(0.015625)"/>
       <path id="DejaVuSans-6f" d="M 1959 3097 
Q 1497 3097 1228 2736 
Q 959 2375 959 1747 
Q 959 1119 1226 758 
Q 1494 397 1959 397 
Q 2419 397 2687 759 
Q 2956 1122 2956 1747 
Q 2956 2369 2687 2733 
Q 2419 3097 1959 3097 
z
M 1959 3584 
Q 2709 3584 3137 3096 
Q 3566 2609 3566 1747 
Q 3566 888 3137 398 
Q 2709 -91 1959 -91 
Q 1206 -91 779 398 
Q 353 888 353 1747 
Q 353 2609 779 3096 
Q 1206 3584 1959 3584 
z
" transform="scale(0.015625)"/>
       <path id="DejaVuSans-72" d="M 2631 2963 
Q 2534 3019 2420 3045 
Q 2306 3072 2169 3072 
Q 1681 3072 1420 2755 
Q 1159 2438 1159 1844 
L 1159 0 
L 581 0 
L 581 3500 
L 1159 3500 
L 1159 2956 
Q 1341 3275 1631 3429 
Q 1922 3584 2338 3584 
Q 2397 3584 2469 3576 
Q 2541 3569 2628 3553 
L 2631 2963 
z
" transform="scale(0.015625)"/>
       <path id="DejaVuSans-6d" d="M 3328 2828 
Q 3544 3216 3844 3400 
Q 4144 3584 4550 3584 
Q 5097 3584 5394 3201 
Q 5691 2819 5691 2113 
L 5691 0 
L 5113 0 
L 5113 2094 
Q 5113 2597 4934 2840 
Q 4756 3084 4391 3084 
Q 3944 3084 3684 2787 
Q 3425 2491 3425 1978 
L 3425 0 
L 2847 0 
L 2847 2094 
Q 2847 2600 2669 2842 
Q 2491 3084 2119 3084 
Q 1678 3084 1418 2786 
Q 1159 2488 1159 1978 
L 1159 0 
L 581 0 
L 581 3500 
L 1159 3500 
L 1159 2956 
Q 1356 3278 1631 3431 
Q 1906 3584 2284 3584 
Q 2666 3584 2933 3390 
Q 3200 3197 3328 2828 
z
" transform="scale(0.015625)"/>
       <path id="DejaVuSans-61" d="M 2194 1759 
Q 1497 1759 1228 1600 
Q 959 1441 959 1056 
Q 959 750 1161 570 
Q 1363 391 1709 391 
Q 2188 391 2477 730 
Q 2766 1069 2766 1631 
L 2766 1759 
L 2194 1759 
z
M 3341 1997 
L 3341 0 
L 2766 0 
L 2766 531 
Q 2569 213 2275 61 
Q 1981 -91 1556 -91 
Q 1019 -91 701 211 
Q 384 513 384 1019 
Q 384 1609 779 1909 
Q 1175 2209 1959 2209 
L 2766 2209 
L 2766 2266 
Q 2766 2663 2505 2880 
Q 2244 3097 1772 3097 
Q 1472 3097 1187 3025 
Q 903 2953 641 2809 
L 641 3341 
Q 956 3463 1253 3523 
Q 1550 3584 1831 3584 
Q 2591 3584 2966 3190 
Q 3341 2797 3341 1997 
z
" transform="scale(0.015625)"/>
       <path id="DejaVuSans-6c" d="M 603 4863 
L 1178 4863 
L 1178 0 
L 603 0 
L 603 4863 
z
" transform="scale(0.015625)"/>
       <path id="DejaVuSans-69" d="M 603 3500 
L 1178 3500 
L 1178 0 
L 603 0 
L 603 3500 
z
M 603 4863 
L 1178 4863 
L 1178 4134 
L 603 4134 
L 603 4863 
z
" transform="scale(0.015625)"/>
       <path id="DejaVuSans-7a" d="M 353 3500 
L 3084 3500 
L 3084 2975 
L 922 459 
L 3084 459 
L 3084 0 
L 275 0 
L 275 525 
L 2438 3041 
L 353 3041 
L 353 3500 
z
" transform="scale(0.015625)"/>
       <path id="DejaVuSans-65" d="M 3597 1894 
L 3597 1613 
L 953 1613 
Q 991 1019 1311 708 
Q 1631 397 2203 397 
Q 2534 397 2845 478 
Q 3156 559 3463 722 
L 3463 178 
Q 3153 47 2828 -22 
Q 2503 -91 2169 -91 
Q 1331 -91 842 396 
Q 353 884 353 1716 
Q 353 2575 817 3079 
Q 1281 3584 2069 3584 
Q 2775 3584 3186 3129 
Q 3597 2675 3597 1894 
z
M 3022 2063 
Q 3016 2534 2758 2815 
Q 2500 3097 2075 3097 
Q 1594 3097 1305 2825 
Q 1016 2553 972 2059 
L 3022 2063 
z
" transform="scale(0.015625)"/>
       <path id="DejaVuSans-64" d="M 2906 2969 
L 2906 4863 
L 3481 4863 
L 3481 0 
L 2906 0 
L 2906 525 
Q 2725 213 2448 61 
Q 2172 -91 1784 -91 
Q 1150 -91 751 415 
Q 353 922 353 1747 
Q 353 2572 751 3078 
Q 1150 3584 1784 3584 
Q 2172 3584 2448 3432 
Q 2725 3281 2906 2969 
z
M 947 1747 
Q 947 1113 1208 752 
Q 1469 391 1925 391 
Q 2381 391 2643 752 
Q 2906 1113 2906 1747 
Q 2906 2381 2643 2742 
Q 2381 3103 1925 3103 
Q 1469 3103 1208 2742 
Q 947 2381 947 1747 
z
" transform="scale(0.015625)"/>
       <path id="DejaVuSans-20" transform="scale(0.015625)"/>
       <path id="DejaVuSans-46" d="M 628 4666 
L 3309 4666 
L 3309 4134 
L 1259 4134 
L 1259 2759 
L 3109 2759 
L 3109 2228 
L 1259 2228 
L 1259 0 
L 628 0 
L 628 4666 
z
" transform="scale(0.015625)"/>
       <path id="DejaVuSans-71" d="M 947 1747 
Q 947 1113 1208 752 
Q 1469 391 1925 391 
Q 2381 391 2643 752 
Q 2906 1113 2906 1747 
Q 2906 2381 2643 2742 
Q 2381 3103 1925 3103 
Q 1469 3103 1208 2742 
Q 947 2381 947 1747 
z
M 2906 525 
Q 2725 213 2448 61 
Q 2172 -91 1784 -91 
Q 1150 -91 751 415 
Q 353 922 353 1747 
Q 353 2572 751 3078 
Q 1150 3584 1784 3584 
Q 2172 3584 2448 3432 
Q 2725 3281 2906 2969 
L 2906 3500 
L 3481 3500 
L 3481 -1331 
L 2906 -1331 
L 2906 525 
z
" transform="scale(0.015625)"/>
       <path id="DejaVuSans-75" d="M 544 1381 
L 544 3500 
L 1119 3500 
L 1119 1403 
Q 1119 906 1312 657 
Q 1506 409 1894 409 
Q 2359 409 2629 706 
Q 2900 1003 2900 1516 
L 2900 3500 
L 3475 3500 
L 3475 0 
L 2900 0 
L 2900 538 
Q 2691 219 2414 64 
Q 2138 -91 1772 -91 
Q 1169 -91 856 284 
Q 544 659 544 1381 
z
M 1991 3584 
L 1991 3584 
z
" transform="scale(0.015625)"/>
       <path id="DejaVuSans-6e" d="M 3513 2113 
L 3513 0 
L 2938 0 
L 2938 2094 
Q 2938 2591 2744 2837 
Q 2550 3084 2163 3084 
Q 1697 3084 1428 2787 
Q 1159 2491 1159 1978 
L 1159 0 
L 581 0 
L 581 3500 
L 1159 3500 
L 1159 2956 
Q 1366 3272 1645 3428 
Q 1925 3584 2291 3584 
Q 2894 3584 3203 3211 
Q 3513 2838 3513 2113 
z
" transform="scale(0.015625)"/>
       <path id="DejaVuSans-63" d="M 3122 3366 
L 3122 2828 
Q 2878 2963 2633 3030 
Q 2388 3097 2138 3097 
Q 1578 3097 1268 2742 
Q 959 2388 959 1747 
Q 959 1106 1268 751 
Q 1578 397 2138 397 
Q 2388 397 2633 464 
Q 2878 531 3122 666 
L 3122 134 
Q 2881 22 2623 -34 
Q 2366 -91 2075 -91 
Q 1284 -91 818 406 
Q 353 903 353 1747 
Q 353 2603 823 3093 
Q 1294 3584 2113 3584 
Q 2378 3584 2631 3529 
Q 2884 3475 3122 3366 
z
" transform="scale(0.015625)"/>
       <path id="DejaVuSans-79" d="M 2059 -325 
Q 1816 -950 1584 -1140 
Q 1353 -1331 966 -1331 
L 506 -1331 
L 506 -850 
L 844 -850 
Q 1081 -850 1212 -737 
Q 1344 -625 1503 -206 
L 1606 56 
L 191 3500 
L 800 3500 
L 1894 763 
L 2988 3500 
L 3597 3500 
L 2059 -325 
z
" transform="scale(0.015625)"/>
       <path id="DejaVuSans-28" d="M 1984 4856 
Q 1566 4138 1362 3434 
Q 1159 2731 1159 2009 
Q 1159 1288 1364 580 
Q 1569 -128 1984 -844 
L 1484 -844 
Q 1016 -109 783 600 
Q 550 1309 550 2009 
Q 550 2706 781 3412 
Q 1013 4119 1484 4856 
L 1984 4856 
z
" transform="scale(0.015625)"/>
       <path id="DejaVuSans-3c0" d="M 231 3500 
L 3584 3500 
L 3584 2925 
L 3144 2925 
L 3144 775 
Q 3144 550 3220 451 
Q 3297 353 3469 353 
Q 3516 353 3584 361 
Q 3653 369 3675 372 
L 3675 -44 
Q 3566 -84 3450 -103 
Q 3334 -122 3219 -122 
Q 2844 -122 2700 83 
Q 2556 288 2556 838 
L 2556 2925 
L 1266 2925 
L 1266 0 
L 678 0 
L 678 2925 
L 231 2925 
L 231 3500 
z
" transform="scale(0.015625)"/>
       <path id="DejaVuSans-73" d="M 2834 3397 
L 2834 2853 
Q 2591 2978 2328 3040 
Q 2066 3103 1784 3103 
Q 1356 3103 1142 2972 
Q 928 2841 928 2578 
Q 928 2378 1081 2264 
Q 1234 2150 1697 2047 
L 1894 2003 
Q 2506 1872 2764 1633 
Q 3022 1394 3022 966 
Q 3022 478 2636 193 
Q 2250 -91 1575 -91 
Q 1294 -91 989 -36 
Q 684 19 347 128 
L 347 722 
Q 666 556 975 473 
Q 1284 391 1588 391 
Q 1994 391 2212 530 
Q 2431 669 2431 922 
Q 2431 1156 2273 1281 
Q 2116 1406 1581 1522 
L 1381 1569 
Q 847 1681 609 1914 
Q 372 2147 372 2553 
Q 372 3047 722 3315 
Q 1072 3584 1716 3584 
Q 2034 3584 2315 3537 
Q 2597 3491 2834 3397 
z
" transform="scale(0.015625)"/>
       <path id="DejaVuSans-2f" d="M 1625 4666 
L 2156 4666 
L 531 -594 
L 0 -594 
L 1625 4666 
z
" transform="scale(0.015625)"/>
       <path id="DejaVuSans-70" d="M 1159 525 
L 1159 -1331 
L 581 -1331 
L 581 3500 
L 1159 3500 
L 1159 2969 
Q 1341 3281 1617 3432 
Q 1894 3584 2278 3584 
Q 2916 3584 3314 3078 
Q 3713 2572 3713 1747 
Q 3713 922 3314 415 
Q 2916 -91 2278 -91 
Q 1894 -91 1617 61 
Q 1341 213 1159 525 
z
M 3116 1747 
Q 3116 2381 2855 2742 
Q 2594 3103 2138 3103 
Q 1681 3103 1420 2742 
Q 1159 2381 1159 1747 
Q 1159 1113 1420 752 
Q 1681 391 2138 391 
Q 2594 391 2855 752 
Q 3116 1113 3116 1747 
z
" transform="scale(0.015625)"/>
       <path id="DejaVuSans-29" d="M 513 4856 
L 1013 4856 
Q 1481 4119 1714 3412 
Q 1947 2706 1947 2009 
Q 1947 1309 1714 600 
Q 1481 -109 1013 -844 
L 513 -844 
Q 928 -128 1133 580 
Q 1338 1288 1338 2009 
Q 1338 2731 1133 3434 
Q 928 4138 513 4856 
z
" transform="scale(0.015625)"/>
      </defs>
      <use xlink:href="#DejaVuSans-4e"/>
      <use xlink:href="#DejaVuSans-6f" x="74.804688"/>
      <use xlink:href="#DejaVuSans-72" x="135.986328"/>
      <use xlink:href="#DejaVuSans-6d" x="175.349609"/>
      <use xlink:href="#DejaVuSans-61" x="272.761719"/>
      <use xlink:href="#DejaVuSans-6c" x="334.041016"/>
      <use xlink:href="#DejaVuSans-69" x="361.824219"/>
      <use xlink:href="#DejaVuSans-7a" x="389.607422"/>
      <use xlink:href="#DejaVuSans-65" x="442.097656"/>
      <use xlink:href="#DejaVuSans-64" x="503.621094"/>
      <use xlink:href="#DejaVuSans-20" x="567.097656"/>
      <use xlink:href="#DejaVuSans-46" x="598.884766"/>
      <use xlink:href="#DejaVuSans-72" x="649.154297"/>
      <use xlink:href="#DejaVuSans-65" x="688.017578"/>
      <use xlink:href="#DejaVuSans-71" x="749.541016"/>
      <use xlink:href="#DejaVuSans-75" x="813.017578"/>
      <use xlink:href="#DejaVuSans-65" x="876.396484"/>
      <use xlink:href="#DejaVuSans-6e" x="937.919922"/>
      <use xlink:href="#DejaVuSans-63" x="1001.298828"/>
      <use xlink:href="#DejaVuSans-79" x="1056.279297"/>
      <use xlink:href="#DejaVuSans-20" x="1115.458984"/>
      <use xlink:href="#DejaVuSans-28" x="1147.246094"/>
      <use xlink:href="#DejaVuSans-3c0" x="1186.259766"/>
      <use xlink:href="#DejaVuSans-20" x="1246.464844"/>
      <use xlink:href="#DejaVuSans-72" x="1278.251953"/>
      <use xlink:href="#DejaVuSans-61" x="1319.365234"/>
      <use xlink:href="#DejaVuSans-64" x="1380.644531"/>
      <use xlink:href="#DejaVuSans-69" x="1444.121094"/>
      <use xlink:href="#DejaVuSans-61" x="1471.904297"/>
      <use xlink:href="#DejaVuSans-6e" x="1533.183594"/>
      <use xlink:href="#DejaVuSans-73" x="1596.5625"/>
      <use xlink:href="#DejaVuSans-2f" x="1648.662109"/>
      <use xlink:href="#DejaVuSans-73" x="1682.353516"/>
      <use xlink:href="#DejaVuSans-61" x="1734.453125"/>
      <use xlink:href="#DejaVuSans-6d" x="1795.732422"/>
      <use xlink:href="#DejaVuSans-70" x="1893.144531"/>
      <use xlink:href="#DejaVuSans-6c" x="1956.621094"/>
      <use xlink:href="#DejaVuSans-65" x="1984.404297"/>
      <use xlink:href="#DejaVuSans-29" x="2045.927734"/>
     </g>
    </g>
   </g>
   <g id="matplotlib.axis_2">
    <g id="ytick_1">
     <g id="line2d_19">
      <path d="M 52.94 272.025387 
L 421.515 272.025387 
" clip-path="url(#p8ec9753ccf)" style="fill: none; stroke: #b0b0b0; stroke-width: 0.8; stroke-linecap: square"/>
     </g>
     <g id="line2d_20">
      <defs>
       <path id="m1958cad41f" d="M 0 0 
L -3.5 0 
" style="stroke: #000000; stroke-width: 0.8"/>
      </defs>
      <g>
       <use xlink:href="#m1958cad41f" x="52.94" y="272.025387" style="stroke: #000000; stroke-width: 0.8"/>
      </g>
     </g>
     <g id="text_11">
      <!-- −80 -->
      <g transform="translate(24.835313 275.824606) scale(0.1 -0.1)">
       <defs>
        <path id="DejaVuSans-2212" d="M 678 2272 
L 4684 2272 
L 4684 1741 
L 678 1741 
L 678 2272 
z
" transform="scale(0.015625)"/>
       </defs>
       <use xlink:href="#DejaVuSans-2212"/>
       <use xlink:href="#DejaVuSans-38" x="83.789062"/>
       <use xlink:href="#DejaVuSans-30" x="147.412109"/>
      </g>
     </g>
    </g>
    <g id="ytick_2">
     <g id="line2d_21">
      <path d="M 52.94 219.942161 
L 421.515 219.942161 
" clip-path="url(#p8ec9753ccf)" style="fill: none; stroke: #b0b0b0; stroke-width: 0.8; stroke-linecap: square"/>
     </g>
     <g id="line2d_22">
      <g>
       <use xlink:href="#m1958cad41f" x="52.94" y="219.942161" style="stroke: #000000; stroke-width: 0.8"/>
      </g>
     </g>
     <g id="text_12">
      <!-- −60 -->
      <g transform="translate(24.835313 223.74138) scale(0.1 -0.1)">
       <use xlink:href="#DejaVuSans-2212"/>
       <use xlink:href="#DejaVuSans-36" x="83.789062"/>
       <use xlink:href="#DejaVuSans-30" x="147.412109"/>
      </g>
     </g>
    </g>
    <g id="ytick_3">
     <g id="line2d_23">
      <path d="M 52.94 167.858935 
L 421.515 167.858935 
" clip-path="url(#p8ec9753ccf)" style="fill: none; stroke: #b0b0b0; stroke-width: 0.8; stroke-linecap: square"/>
     </g>
     <g id="line2d_24">
      <g>
       <use xlink:href="#m1958cad41f" x="52.94" y="167.858935" style="stroke: #000000; stroke-width: 0.8"/>
      </g>
     </g>
     <g id="text_13">
      <!-- −40 -->
      <g transform="translate(24.835313 171.658154) scale(0.1 -0.1)">
       <use xlink:href="#DejaVuSans-2212"/>
       <use xlink:href="#DejaVuSans-34" x="83.789062"/>
       <use xlink:href="#DejaVuSans-30" x="147.412109"/>
      </g>
     </g>
    </g>
    <g id="ytick_4">
     <g id="line2d_25">
      <path d="M 52.94 115.77571 
L 421.515 115.77571 
" clip-path="url(#p8ec9753ccf)" style="fill: none; stroke: #b0b0b0; stroke-width: 0.8; stroke-linecap: square"/>
     </g>
     <g id="line2d_26">
      <g>
       <use xlink:href="#m1958cad41f" x="52.94" y="115.77571" style="stroke: #000000; stroke-width: 0.8"/>
      </g>
     </g>
     <g id="text_14">
      <!-- −20 -->
      <g transform="translate(24.835313 119.574928) scale(0.1 -0.1)">
       <use xlink:href="#DejaVuSans-2212"/>
       <use xlink:href="#DejaVuSans-32" x="83.789062"/>
       <use xlink:href="#DejaVuSans-30" x="147.412109"/>
      </g>
     </g>
    </g>
    <g id="ytick_5">
     <g id="line2d_27">
      <path d="M 52.94 63.692484 
L 421.515 63.692484 
" clip-path="url(#p8ec9753ccf)" style="fill: none; stroke: #b0b0b0; stroke-width: 0.8; stroke-linecap: square"/>
     </g>
     <g id="line2d_28">
      <g>
       <use xlink:href="#m1958cad41f" x="52.94" y="63.692484" style="stroke: #000000; stroke-width: 0.8"/>
      </g>
     </g>
     <g id="text_15">
      <!-- 0 -->
      <g transform="translate(39.5775 67.491703) scale(0.1 -0.1)">
       <use xlink:href="#DejaVuSans-30"/>
      </g>
     </g>
    </g>
    <g id="text_16">
     <!-- Magnitude (dB) -->
     <g transform="translate(18.755625 215.558656) rotate(-90) scale(0.1 -0.1)">
      <defs>
       <path id="DejaVuSans-4d" d="M 628 4666 
L 1569 4666 
L 2759 1491 
L 3956 4666 
L 4897 4666 
L 4897 0 
L 4281 0 
L 4281 4097 
L 3078 897 
L 2444 897 
L 1241 4097 
L 1241 0 
L 628 0 
L 628 4666 
z
" transform="scale(0.015625)"/>
       <path id="DejaVuSans-67" d="M 2906 1791 
Q 2906 2416 2648 2759 
Q 2391 3103 1925 3103 
Q 1463 3103 1205 2759 
Q 947 2416 947 1791 
Q 947 1169 1205 825 
Q 1463 481 1925 481 
Q 2391 481 2648 825 
Q 2906 1169 2906 1791 
z
M 3481 434 
Q 3481 -459 3084 -895 
Q 2688 -1331 1869 -1331 
Q 1566 -1331 1297 -1286 
Q 1028 -1241 775 -1147 
L 775 -588 
Q 1028 -725 1275 -790 
Q 1522 -856 1778 -856 
Q 2344 -856 2625 -561 
Q 2906 -266 2906 331 
L 2906 616 
Q 2728 306 2450 153 
Q 2172 0 1784 0 
Q 1141 0 747 490 
Q 353 981 353 1791 
Q 353 2603 747 3093 
Q 1141 3584 1784 3584 
Q 2172 3584 2450 3431 
Q 2728 3278 2906 2969 
L 2906 3500 
L 3481 3500 
L 3481 434 
z
" transform="scale(0.015625)"/>
       <path id="DejaVuSans-74" d="M 1172 4494 
L 1172 3500 
L 2356 3500 
L 2356 3053 
L 1172 3053 
L 1172 1153 
Q 1172 725 1289 603 
Q 1406 481 1766 481 
L 2356 481 
L 2356 0 
L 1766 0 
Q 1100 0 847 248 
Q 594 497 594 1153 
L 594 3053 
L 172 3053 
L 172 3500 
L 594 3500 
L 594 4494 
L 1172 4494 
z
" transform="scale(0.015625)"/>
       <path id="DejaVuSans-42" d="M 1259 2228 
L 1259 519 
L 2272 519 
Q 2781 519 3026 730 
Q 3272 941 3272 1375 
Q 3272 1813 3026 2020 
Q 2781 2228 2272 2228 
L 1259 2228 
z
M 1259 4147 
L 1259 2741 
L 2194 2741 
Q 2656 2741 2882 2914 
Q 3109 3088 3109 3444 
Q 3109 3797 2882 3972 
Q 2656 4147 2194 4147 
L 1259 4147 
z
M 628 4666 
L 2241 4666 
Q 2963 4666 3353 4366 
Q 3744 4066 3744 3513 
Q 3744 3084 3544 2831 
Q 3344 2578 2956 2516 
Q 3422 2416 3680 2098 
Q 3938 1781 3938 1306 
Q 3938 681 3513 340 
Q 3088 0 2303 0 
L 628 0 
L 628 4666 
z
" transform="scale(0.015625)"/>
      </defs>
      <use xlink:href="#DejaVuSans-4d"/>
      <use xlink:href="#DejaVuSans-61" x="86.279297"/>
      <use xlink:href="#DejaVuSans-67" x="147.558594"/>
      <use xlink:href="#DejaVuSans-6e" x="211.035156"/>
      <use xlink:href="#DejaVuSans-69" x="274.414062"/>
      <use xlink:href="#DejaVuSans-74" x="302.197266"/>
      <use xlink:href="#DejaVuSans-75" x="341.40625"/>
      <use xlink:href="#DejaVuSans-64" x="404.785156"/>
      <use xlink:href="#DejaVuSans-65" x="468.261719"/>
      <use xlink:href="#DejaVuSans-20" x="529.785156"/>
      <use xlink:href="#DejaVuSans-28" x="561.572266"/>
      <use xlink:href="#DejaVuSans-64" x="600.585938"/>
      <use xlink:href="#DejaVuSans-42" x="664.0625"/>
      <use xlink:href="#DejaVuSans-29" x="732.666016"/>
     </g>
    </g>
   </g>
   <g id="line2d_29">
    <path d="M 52.94 64.256081 
L 57.259238 64.217824 
L 58.698984 63.890597 
L 60.858604 63.216523 
L 61.578477 63.094596 
L 62.29835 63.110558 
L 63.018223 63.32049 
L 63.738096 63.779875 
L 64.457969 64.54259 
L 65.177842 65.660961 
L 65.897715 67.1867 
L 66.617588 69.172619 
L 67.337461 71.675102 
L 68.057334 74.757504 
L 68.777207 78.494913 
L 69.49708 82.981207 
L 70.216953 88.340279 
L 70.936826 94.745441 
L 71.656699 102.456426 
L 72.376572 111.89936 
L 73.096445 123.872832 
L 73.816318 140.251824 
L 74.536191 168.335467 
L 75.256064 188.816472 
L 75.975938 169.119976 
L 76.695811 170.084102 
L 77.415684 182.906506 
L 78.135557 260.330717 
L 78.85543 182.928688 
L 79.575303 171.357671 
L 80.295176 168.233524 
L 81.015049 170.584345 
L 81.734922 179.30302 
L 82.454795 204.038289 
L 83.174668 200.91961 
L 83.894541 178.854108 
L 84.614414 170.781839 
L 85.334287 168.324022 
L 86.05416 170.123597 
L 86.774033 176.856275 
L 87.493906 193.303476 
L 88.213779 226.328467 
L 88.933652 185.402103 
L 89.653525 173.86258 
L 90.373398 169.122428 
L 91.093271 168.559444 
L 91.813145 171.897252 
L 92.533018 180.583622 
L 93.252891 202.828073 
L 93.972764 207.128703 
L 94.692637 181.935462 
L 95.41251 172.562719 
L 96.132383 168.768058 
L 96.852256 168.790207 
L 97.572129 172.611333 
L 98.292002 181.928024 
L 99.011875 206.483114 
L 99.731748 204.083528 
L 100.451621 181.236278 
L 101.171494 172.309712 
L 101.891367 168.664488 
L 102.61124 168.704527 
L 103.331113 172.428932 
L 104.050986 181.434718 
L 104.770859 204.401499 
L 105.490732 206.614731 
L 106.210605 182.139235 
L 106.930479 172.795228 
L 107.650352 168.8698 
L 108.370225 168.624408 
L 109.090098 171.9628 
L 109.809971 180.246373 
L 110.529844 200.380689 
L 111.249717 212.643634 
L 111.96959 183.857913 
L 112.689463 173.621522 
L 113.409336 169.181465 
L 114.129209 168.481506 
L 114.849082 171.272313 
L 115.568955 178.628295 
L 116.288828 195.724309 
L 117.008701 224.926591 
L 117.728574 186.410944 
L 118.448447 174.786635 
L 119.16832 169.629122 
L 119.888193 168.346907 
L 120.608066 170.487477 
L 121.327939 176.829831 
L 122.047812 191.137681 
L 122.767686 272.559864 
L 123.487559 190.021333 
L 124.207432 176.363747 
L 124.927305 170.281902 
L 125.647178 168.309699 
L 126.367051 169.734692 
L 127.086924 175.051673 
L 127.806797 186.961246 
L 128.52667 228.03142 
L 129.246543 195.094677 
L 129.966416 178.431895 
L 130.686289 171.192402 
L 131.406162 168.430032 
L 132.126035 169.094726 
L 132.845908 173.40952 
L 133.565781 183.290821 
L 134.285654 209.89247 
L 135.005527 202.524398 
L 135.7254 181.101059 
L 136.445273 172.408842 
L 137.165146 168.750478 
L 137.88502 168.617663 
L 138.604893 171.964236 
L 139.324766 180.121792 
L 140.044639 199.609549 
L 140.764512 214.843747 
L 141.484385 184.542299 
L 142.204258 173.984318 
L 142.924131 169.304958 
L 143.644004 168.335467 
L 144.363877 170.745626 
L 145.08375 177.416456 
L 145.803623 192.466633 
L 146.523496 247.44652 
L 147.243369 189.046397 
L 147.963242 175.986002 
L 148.683115 170.125155 
L 149.402988 168.270453 
L 150.122861 169.767218 
L 150.842734 175.130943 
L 151.562607 187.075021 
L 152.28248 228.267239 
L 153.002354 195.167131 
L 153.722227 178.507432 
L 154.4421 171.245629 
L 155.161973 168.440821 
L 155.881846 169.034836 
L 156.601719 173.22496 
L 157.321592 182.828409 
L 158.041465 207.993528 
L 158.761338 204.170514 
L 159.481211 181.688987 
L 160.201084 172.708793 
L 160.920957 168.864464 
L 161.64083 168.55154 
L 162.360703 171.664756 
L 163.080576 179.40623 
L 163.800449 197.483866 
L 164.520322 220.230848 
L 165.240195 185.75801 
L 165.960068 174.571054 
L 166.679941 169.561943 
L 167.399814 168.320541 
L 168.119687 170.423557 
L 168.839561 176.618524 
L 169.559434 190.436877 
L 170.279307 284.079233 
L 170.99918 191.120297 
L 171.719053 176.911967 
L 172.438926 170.55932 
L 173.158799 168.347096 
L 173.878672 169.481184 
L 174.598545 174.344146 
L 175.318418 185.224286 
L 176.038291 217.4691 
L 177.478037 179.84993 
L 178.19791 171.891487 
L 178.917783 168.639969 
L 179.637656 168.823526 
L 180.357529 172.502067 
L 181.077402 181.175928 
L 181.797275 202.429629 
L 182.517148 210.474506 
L 183.237021 183.572351 
L 183.956895 173.606839 
L 184.676768 169.212876 
L 185.396641 168.44215 
L 186.116514 171.036572 
L 186.836387 177.950748 
L 187.55626 193.599654 
L 188.276133 238.217093 
L 188.996006 188.401297 
L 189.715879 175.774655 
L 190.435752 170.086247 
L 191.155625 168.334146 
L 191.875498 169.909045 
L 192.595371 175.352337 
L 193.315244 187.434152 
L 194.035117 230.000021 
L 194.75499 194.961716 
L 195.474863 178.497895 
L 196.194736 171.28973 
L 196.914609 168.502318 
L 197.634482 169.093209 
L 198.354355 173.258346 
L 199.074229 182.790632 
L 199.794102 207.582904 
L 200.513975 204.737951 
L 201.233848 181.937434 
L 201.953721 172.866064 
L 202.673594 168.955787 
L 203.393467 168.57233 
L 204.11334 171.588692 
L 204.833213 179.154882 
L 205.553086 196.665272 
L 206.272959 223.128396 
L 206.992832 186.363131 
L 207.712705 174.877466 
L 208.432578 169.711219 
L 209.152451 168.337679 
L 209.872324 170.289564 
L 210.592197 176.252123 
L 211.31207 189.497841 
L 212.031943 252.287853 
L 212.751816 192.278012 
L 213.471689 177.416868 
L 214.191563 170.794973 
L 214.911436 168.387912 
L 215.631309 169.324785 
L 216.351182 173.919374 
L 217.071055 184.255207 
L 217.790928 213.118121 
L 218.510801 200.79413 
L 219.230674 180.629316 
L 219.950547 172.246894 
L 220.67042 168.729328 
L 221.390293 168.67098 
L 222.110166 172.053186 
L 222.830039 180.210777 
L 223.549912 199.608172 
L 224.269785 215.324766 
L 224.989658 184.757406 
L 225.709531 174.127447 
L 226.429404 169.377397 
L 227.149277 168.314987 
L 227.86915 170.584565 
L 228.589023 176.999152 
L 229.308896 191.330382 
L 230.02877 273.957497 
L 230.748643 190.259806 
L 231.468516 176.537494 
L 232.188389 170.365557 
L 232.908262 168.258008 
L 233.628135 169.470343 
L 234.348008 174.410394 
L 235.067881 185.4129 
L 235.787754 218.407068 
L 237.2275 179.70476 
L 237.947373 171.810479 
L 238.667246 168.585207 
L 239.387119 168.776406 
L 240.106992 172.445966 
L 240.826865 181.081449 
L 241.546738 202.150136 
L 242.266611 210.907387 
L 242.986484 183.691534 
L 243.706357 173.65793 
L 244.42623 169.218053 
L 245.146104 168.398895 
L 245.865977 170.926852 
L 246.58585 177.722921 
L 247.305723 193.028665 
L 248.025596 243.290389 
L 248.745469 188.881751 
L 249.465342 175.988564 
L 250.185215 170.174683 
L 250.905088 168.323031 
L 251.624961 169.788207 
L 252.344834 175.069078 
L 253.064707 186.783913 
L 253.78458 225.536652 
L 254.504453 196.018722 
L 255.224326 178.9188 
L 255.944199 171.485108 
L 256.664072 168.545909 
L 257.383945 168.990538 
L 258.103818 172.965415 
L 258.823691 182.139138 
L 259.543564 205.33773 
L 260.263438 206.980075 
L 260.983311 182.634038 
L 261.703184 173.195371 
L 262.423057 169.074087 
L 263.14293 168.509681 
L 263.862803 171.315286 
L 264.582676 178.537838 
L 265.302549 195.020767 
L 266.022422 229.926382 
L 266.742295 187.454501 
L 267.462168 175.374927 
L 268.182041 169.92397 
L 268.901914 168.332782 
L 269.621787 170.055769 
L 270.34166 175.688297 
L 271.061533 188.168427 
L 271.781406 235.683174 
L 272.501279 194.003461 
L 273.221152 178.13032 
L 273.941025 171.123872 
L 274.660898 168.456584 
L 275.380771 169.145598 
L 276.100645 173.419832 
L 276.820518 183.138719 
L 277.540391 208.777346 
L 278.260264 203.764622 
L 278.980137 181.63226 
L 279.70001 172.718298 
L 280.419883 168.887232 
L 281.139756 168.558733 
L 281.859629 171.62532 
L 282.579502 179.258824 
L 283.299375 196.956984 
L 284.019248 222.150822 
L 284.739121 186.175602 
L 285.458994 174.77651 
L 286.178867 169.641837 
L 286.89874 168.281059 
L 287.618613 170.234148 
L 288.338486 176.185083 
L 289.058359 189.386961 
L 289.778232 250.841887 
L 290.498105 192.343374 
L 291.217979 177.416476 
L 291.937852 170.758515 
L 292.657725 168.314962 
L 293.377598 169.203375 
L 294.097471 173.718757 
L 294.817344 183.877541 
L 295.537217 211.697669 
L 296.25709 201.624398 
L 296.976963 180.907803 
L 297.696836 172.369893 
L 298.416709 168.75612 
L 299.136582 168.608656 
L 299.856455 171.877999 
L 300.576328 179.834094 
L 302.016074 217.814949 
L 302.735947 185.336205 
L 303.45582 174.413324 
L 304.175693 169.515085 
L 304.895566 168.335467 
L 305.615439 170.476811 
L 306.335312 176.696366 
L 307.055186 190.531635 
L 307.775059 284.686176 
L 308.494932 191.200582 
L 309.214805 176.985497 
L 309.934678 170.614182 
L 310.654551 168.370303 
L 311.374424 169.452749 
L 312.094297 174.223755 
L 312.81417 184.88915 
L 313.534043 215.665855 
L 314.253916 199.545126 
L 314.973789 180.228256 
L 315.693662 172.089269 
L 316.413535 168.712336 
L 317.133408 168.768705 
L 317.853281 172.276669 
L 318.573154 180.634388 
L 319.293027 200.699973 
L 320.0129 213.446723 
L 320.732773 184.374451 
L 321.452646 173.995381 
L 322.17252 169.371121 
L 322.892393 168.402874 
L 323.612266 170.767439 
L 324.332139 177.315798 
L 325.052012 191.974601 
L 325.771885 258.394905 
L 326.491758 189.845328 
L 327.211631 176.416549 
L 327.931504 170.367417 
L 328.651377 168.344967 
L 329.37125 169.639127 
L 330.091123 174.687635 
L 330.810996 185.914607 
L 331.530869 220.573107 
L 332.250742 197.524651 
L 332.970615 179.484566 
L 333.690488 171.736105 
L 334.410361 168.594829 
L 335.130234 168.854914 
L 335.850107 172.602634 
L 336.56998 181.371465 
L 337.289854 202.948708 
L 338.009727 209.838614 
L 338.7296 183.418325 
L 339.449473 173.532405 
L 340.169346 169.162933 
L 340.889219 168.392531 
L 341.609092 170.966646 
L 342.328965 177.827075 
L 343.048838 193.302181 
L 343.768711 240.616511 
L 344.488584 188.620441 
L 345.208457 175.84648 
L 345.92833 170.074343 
L 346.648203 168.241775 
L 347.368076 169.714429 
L 348.087949 174.992675 
L 348.807822 186.685291 
L 349.527695 225.174489 
L 350.247568 196.059581 
L 350.967441 178.905653 
L 351.687314 171.448996 
L 352.407188 168.489076 
L 353.127061 168.907609 
L 353.846934 172.841509 
L 354.566807 181.929483 
L 355.28668 204.745458 
L 356.006553 207.574579 
L 356.726426 182.788474 
L 357.446299 173.250709 
L 358.166172 169.071938 
L 358.886045 168.456279 
L 359.605918 171.199334 
L 360.325791 178.316407 
L 361.045664 194.486235 
L 361.765537 232.687348 
L 362.48541 187.813318 
L 363.205283 175.530364 
L 363.925156 169.98455 
L 364.645029 168.321119 
L 365.364902 169.967464 
L 366.084775 175.488486 
L 366.804648 187.712742 
L 367.524521 231.823833 
L 368.244395 194.662862 
L 368.964268 178.401582 
L 369.684141 171.254979 
L 370.404014 168.494995 
L 371.123887 169.096644 
L 371.84376 173.258579 
L 372.563633 182.76426 
L 373.283506 207.395238 
L 374.003379 204.990914 
L 374.723252 182.043184 
L 375.443125 172.927555 
L 376.162998 168.981864 
L 376.882871 168.557007 
L 377.602744 171.513037 
L 378.322617 178.966558 
L 379.04249 196.113914 
L 379.762363 225.285012 
L 380.482236 186.762513 
L 381.202109 175.070235 
L 381.921982 169.796461 
L 382.641855 168.332065 
L 383.361729 170.179065 
L 384.081602 175.979656 
L 384.801475 188.832799 
L 385.521348 242.406952 
L 386.241221 193.153119 
L 386.961094 177.788323 
L 387.680967 170.966253 
L 388.40084 168.416273 
L 389.120713 169.20926 
L 389.840586 173.609214 
L 390.560459 183.558204 
L 391.280332 210.320162 
L 392.000205 202.60758 
L 392.720078 181.252327 
L 393.439951 172.536227 
L 394.159824 168.814725 
L 394.879697 168.573575 
L 395.59957 171.734499 
L 396.319443 179.514858 
L 397.039316 197.661608 
L 397.759189 220.026905 
L 398.479062 185.763643 
L 399.198936 174.580749 
L 399.918809 169.54615 
L 400.638682 168.255054 
L 401.358555 170.272822 
L 402.078428 176.306177 
L 402.798301 189.684542 
L 403.518174 256.250686 
L 404.238047 192.023851 
L 404.95792 177.300887 
L 405.677793 170.725292 
L 406.397666 168.339016 
L 407.117539 169.282335 
L 407.837412 173.868547 
L 408.557285 184.164332 
L 409.277158 212.735897 
L 409.997031 201.045747 
L 410.716904 180.731427 
L 411.436777 172.304105 
L 412.15665 168.75425 
L 412.876523 168.660158 
L 413.596396 171.990124 
L 414.31627 180.045555 
L 415.756016 216.653604 
L 416.475889 185.104914 
L 417.195762 174.320381 
L 417.915635 169.490004 
L 418.635508 168.361444 
L 419.355381 170.555562 
L 420.075254 176.851671 
L 420.795127 190.87542 
L 420.795127 190.87542 
" clip-path="url(#p8ec9753ccf)" style="fill: none; stroke: #ff0000; stroke-width: 1.5; stroke-linecap: square"/>
   </g>
   <g id="line2d_30">
    <path d="M 52.94 63.094596 
L 64.278 63.094596 
" clip-path="url(#p8ec9753ccf)" style="fill: none; stroke-dasharray: 3.7,1.6; stroke-dashoffset: 0; stroke: #0000ff"/>
   </g>
   <g id="line2d_31">
    <path d="M 52.94 64.320829 
L 64.278 64.320829 
" clip-path="url(#p8ec9753ccf)" style="fill: none; stroke-dasharray: 3.7,1.6; stroke-dashoffset: 0; stroke: #0000ff"/>
   </g>
   <g id="line2d_32">
    <path d="M 74.536191 168.233524 
L 421.515 168.233524 
" clip-path="url(#p8ec9753ccf)" style="fill: none; stroke-dasharray: 3.7,1.6; stroke-dashoffset: 0; stroke: #0000ff"/>
   </g>
   <g id="patch_3">
    <path d="M 52.94 298.067 
L 52.94 55.88 
" style="fill: none; stroke: #000000; stroke-width: 0.8; stroke-linejoin: miter; stroke-linecap: square"/>
   </g>
   <g id="patch_4">
    <path d="M 421.515 298.067 
L 421.515 55.88 
" style="fill: none; stroke: #000000; stroke-width: 0.8; stroke-linejoin: miter; stroke-linecap: square"/>
   </g>
   <g id="patch_5">
    <path d="M 52.94 298.067 
L 421.515 298.067 
" style="fill: none; stroke: #000000; stroke-width: 0.8; stroke-linejoin: miter; stroke-linecap: square"/>
   </g>
   <g id="patch_6">
    <path d="M 52.94 55.88 
L 421.515 55.88 
" style="fill: none; stroke: #000000; stroke-width: 0.8; stroke-linejoin: miter; stroke-linecap: square"/>
   </g>
   <g id="text_17">
    <!-- Frequency Response -->
    <g transform="translate(175.508125 21.603437) scale(0.12 -0.12)">
     <defs>
      <path id="DejaVuSans-52" d="M 2841 2188 
Q 3044 2119 3236 1894 
Q 3428 1669 3622 1275 
L 4263 0 
L 3584 0 
L 2988 1197 
Q 2756 1666 2539 1819 
Q 2322 1972 1947 1972 
L 1259 1972 
L 1259 0 
L 628 0 
L 628 4666 
L 2053 4666 
Q 2853 4666 3247 4331 
Q 3641 3997 3641 3322 
Q 3641 2881 3436 2590 
Q 3231 2300 2841 2188 
z
M 1259 4147 
L 1259 2491 
L 2053 2491 
Q 2509 2491 2742 2702 
Q 2975 2913 2975 3322 
Q 2975 3731 2742 3939 
Q 2509 4147 2053 4147 
L 1259 4147 
z
" transform="scale(0.015625)"/>
     </defs>
     <use xlink:href="#DejaVuSans-46"/>
     <use xlink:href="#DejaVuSans-72" x="50.269531"/>
     <use xlink:href="#DejaVuSans-65" x="89.132812"/>
     <use xlink:href="#DejaVuSans-71" x="150.65625"/>
     <use xlink:href="#DejaVuSans-75" x="214.132812"/>
     <use xlink:href="#DejaVuSans-65" x="277.511719"/>
     <use xlink:href="#DejaVuSans-6e" x="339.035156"/>
     <use xlink:href="#DejaVuSans-63" x="402.414062"/>
     <use xlink:href="#DejaVuSans-79" x="457.394531"/>
     <use xlink:href="#DejaVuSans-20" x="516.574219"/>
     <use xlink:href="#DejaVuSans-52" x="548.361328"/>
     <use xlink:href="#DejaVuSans-65" x="613.34375"/>
     <use xlink:href="#DejaVuSans-73" x="674.867188"/>
     <use xlink:href="#DejaVuSans-70" x="726.966797"/>
     <use xlink:href="#DejaVuSans-6f" x="790.443359"/>
     <use xlink:href="#DejaVuSans-6e" x="851.625"/>
     <use xlink:href="#DejaVuSans-73" x="915.003906"/>
     <use xlink:href="#DejaVuSans-65" x="967.103516"/>
    </g>
   </g>
   <g id="legend_1">
    <g id="patch_7">
     <path d="M 279.649375 122.5925 
L 414.515 122.5925 
Q 416.515 122.5925 416.515 120.5925 
L 416.515 62.88 
Q 416.515 60.88 414.515 60.88 
L 279.649375 60.88 
Q 277.649375 60.88 277.649375 62.88 
L 277.649375 120.5925 
Q 277.649375 122.5925 279.649375 122.5925 
z
" style="fill: #ffffff; opacity: 0.8; stroke: #cccccc; stroke-linejoin: miter"/>
    </g>
    <g id="line2d_33">
     <path d="M 281.649375 68.978438 
L 291.649375 68.978438 
L 301.649375 68.978438 
" style="fill: none; stroke: #ff0000; stroke-width: 1.5; stroke-linecap: square"/>
    </g>
    <g id="text_18">
     <!-- Frequency Response -->
     <g transform="translate(309.649375 72.478438) scale(0.1 -0.1)">
      <use xlink:href="#DejaVuSans-46"/>
      <use xlink:href="#DejaVuSans-72" x="50.269531"/>
      <use xlink:href="#DejaVuSans-65" x="89.132812"/>
      <use xlink:href="#DejaVuSans-71" x="150.65625"/>
      <use xlink:href="#DejaVuSans-75" x="214.132812"/>
      <use xlink:href="#DejaVuSans-65" x="277.511719"/>
      <use xlink:href="#DejaVuSans-6e" x="339.035156"/>
      <use xlink:href="#DejaVuSans-63" x="402.414062"/>
      <use xlink:href="#DejaVuSans-79" x="457.394531"/>
      <use xlink:href="#DejaVuSans-20" x="516.574219"/>
      <use xlink:href="#DejaVuSans-52" x="548.361328"/>
      <use xlink:href="#DejaVuSans-65" x="613.34375"/>
      <use xlink:href="#DejaVuSans-73" x="674.867188"/>
      <use xlink:href="#DejaVuSans-70" x="726.966797"/>
      <use xlink:href="#DejaVuSans-6f" x="790.443359"/>
      <use xlink:href="#DejaVuSans-6e" x="851.625"/>
      <use xlink:href="#DejaVuSans-73" x="915.003906"/>
      <use xlink:href="#DejaVuSans-65" x="967.103516"/>
     </g>
    </g>
    <g id="line2d_34">
     <path d="M 281.649375 83.656563 
L 291.649375 83.656563 
L 301.649375 83.656563 
" style="fill: none; stroke-dasharray: 3.7,1.6; stroke-dashoffset: 0; stroke: #0000ff"/>
    </g>
    <g id="text_19">
     <!-- Passband Max -->
     <g transform="translate(309.649375 87.156563) scale(0.1 -0.1)">
      <defs>
       <path id="DejaVuSans-50" d="M 1259 4147 
L 1259 2394 
L 2053 2394 
Q 2494 2394 2734 2622 
Q 2975 2850 2975 3272 
Q 2975 3691 2734 3919 
Q 2494 4147 2053 4147 
L 1259 4147 
z
M 628 4666 
L 2053 4666 
Q 2838 4666 3239 4311 
Q 3641 3956 3641 3272 
Q 3641 2581 3239 2228 
Q 2838 1875 2053 1875 
L 1259 1875 
L 1259 0 
L 628 0 
L 628 4666 
z
" transform="scale(0.015625)"/>
       <path id="DejaVuSans-62" d="M 3116 1747 
Q 3116 2381 2855 2742 
Q 2594 3103 2138 3103 
Q 1681 3103 1420 2742 
Q 1159 2381 1159 1747 
Q 1159 1113 1420 752 
Q 1681 391 2138 391 
Q 2594 391 2855 752 
Q 3116 1113 3116 1747 
z
M 1159 2969 
Q 1341 3281 1617 3432 
Q 1894 3584 2278 3584 
Q 2916 3584 3314 3078 
Q 3713 2572 3713 1747 
Q 3713 922 3314 415 
Q 2916 -91 2278 -91 
Q 1894 -91 1617 61 
Q 1341 213 1159 525 
L 1159 0 
L 581 0 
L 581 4863 
L 1159 4863 
L 1159 2969 
z
" transform="scale(0.015625)"/>
       <path id="DejaVuSans-78" d="M 3513 3500 
L 2247 1797 
L 3578 0 
L 2900 0 
L 1881 1375 
L 863 0 
L 184 0 
L 1544 1831 
L 300 3500 
L 978 3500 
L 1906 2253 
L 2834 3500 
L 3513 3500 
z
" transform="scale(0.015625)"/>
      </defs>
      <use xlink:href="#DejaVuSans-50"/>
      <use xlink:href="#DejaVuSans-61" x="55.802734"/>
      <use xlink:href="#DejaVuSans-73" x="117.082031"/>
      <use xlink:href="#DejaVuSans-73" x="169.181641"/>
      <use xlink:href="#DejaVuSans-62" x="221.28125"/>
      <use xlink:href="#DejaVuSans-61" x="284.757812"/>
      <use xlink:href="#DejaVuSans-6e" x="346.037109"/>
      <use xlink:href="#DejaVuSans-64" x="409.416016"/>
      <use xlink:href="#DejaVuSans-20" x="472.892578"/>
      <use xlink:href="#DejaVuSans-4d" x="504.679688"/>
      <use xlink:href="#DejaVuSans-61" x="590.958984"/>
      <use xlink:href="#DejaVuSans-78" x="652.238281"/>
     </g>
    </g>
    <g id="line2d_35">
     <path d="M 281.649375 98.334688 
L 291.649375 98.334688 
L 301.649375 98.334688 
" style="fill: none; stroke-dasharray: 3.7,1.6; stroke-dashoffset: 0; stroke: #0000ff"/>
    </g>
    <g id="text_20">
     <!-- Passband Min -->
     <g transform="translate(309.649375 101.834688) scale(0.1 -0.1)">
      <use xlink:href="#DejaVuSans-50"/>
      <use xlink:href="#DejaVuSans-61" x="55.802734"/>
      <use xlink:href="#DejaVuSans-73" x="117.082031"/>
      <use xlink:href="#DejaVuSans-73" x="169.181641"/>
      <use xlink:href="#DejaVuSans-62" x="221.28125"/>
      <use xlink:href="#DejaVuSans-61" x="284.757812"/>
      <use xlink:href="#DejaVuSans-6e" x="346.037109"/>
      <use xlink:href="#DejaVuSans-64" x="409.416016"/>
      <use xlink:href="#DejaVuSans-20" x="472.892578"/>
      <use xlink:href="#DejaVuSans-4d" x="504.679688"/>
      <use xlink:href="#DejaVuSans-69" x="590.958984"/>
      <use xlink:href="#DejaVuSans-6e" x="618.742188"/>
     </g>
    </g>
    <g id="line2d_36">
     <path d="M 281.649375 113.012813 
L 291.649375 113.012813 
L 301.649375 113.012813 
" style="fill: none; stroke-dasharray: 3.7,1.6; stroke-dashoffset: 0; stroke: #0000ff"/>
    </g>
    <g id="text_21">
     <!-- Stopband Max -->
     <g transform="translate(309.649375 116.512813) scale(0.1 -0.1)">
      <defs>
       <path id="DejaVuSans-53" d="M 3425 4513 
L 3425 3897 
Q 3066 4069 2747 4153 
Q 2428 4238 2131 4238 
Q 1616 4238 1336 4038 
Q 1056 3838 1056 3469 
Q 1056 3159 1242 3001 
Q 1428 2844 1947 2747 
L 2328 2669 
Q 3034 2534 3370 2195 
Q 3706 1856 3706 1288 
Q 3706 609 3251 259 
Q 2797 -91 1919 -91 
Q 1588 -91 1214 -16 
Q 841 59 441 206 
L 441 856 
Q 825 641 1194 531 
Q 1563 422 1919 422 
Q 2459 422 2753 634 
Q 3047 847 3047 1241 
Q 3047 1584 2836 1778 
Q 2625 1972 2144 2069 
L 1759 2144 
Q 1053 2284 737 2584 
Q 422 2884 422 3419 
Q 422 4038 858 4394 
Q 1294 4750 2059 4750 
Q 2388 4750 2728 4690 
Q 3069 4631 3425 4513 
z
" transform="scale(0.015625)"/>
      </defs>
      <use xlink:href="#DejaVuSans-53"/>
      <use xlink:href="#DejaVuSans-74" x="63.476562"/>
      <use xlink:href="#DejaVuSans-6f" x="102.685547"/>
      <use xlink:href="#DejaVuSans-70" x="163.867188"/>
      <use xlink:href="#DejaVuSans-62" x="227.34375"/>
      <use xlink:href="#DejaVuSans-61" x="290.820312"/>
      <use xlink:href="#DejaVuSans-6e" x="352.099609"/>
      <use xlink:href="#DejaVuSans-64" x="415.478516"/>
      <use xlink:href="#DejaVuSans-20" x="478.955078"/>
      <use xlink:href="#DejaVuSans-4d" x="510.742188"/>
      <use xlink:href="#DejaVuSans-61" x="597.021484"/>
      <use xlink:href="#DejaVuSans-78" x="658.300781"/>
     </g>
    </g>
   </g>
  </g>
  <g id="axes_2">
   <g id="matplotlib.axis_3">
    <g id="xtick_10">
     <g id="line2d_37">
      <defs>
       <path id="mf95cb291de" d="M 0 0 
L 0 -3.5 
" style="stroke: #000000; stroke-width: 0.8"/>
      </defs>
      <g>
       <use xlink:href="#mf95cb291de" x="52.94" y="55.88" style="stroke: #000000; stroke-width: 0.8"/>
      </g>
     </g>
     <g id="text_22">
      <!-- 0.00 Hz -->
      <g transform="translate(33.83375 46.800313) scale(0.1 -0.1)">
       <defs>
        <path id="DejaVuSans-48" d="M 628 4666 
L 1259 4666 
L 1259 2753 
L 3553 2753 
L 3553 4666 
L 4184 4666 
L 4184 0 
L 3553 0 
L 3553 2222 
L 1259 2222 
L 1259 0 
L 628 0 
L 628 4666 
z
" transform="scale(0.015625)"/>
       </defs>
       <use xlink:href="#DejaVuSans-30"/>
       <use xlink:href="#DejaVuSans-2e" x="63.623047"/>
       <use xlink:href="#DejaVuSans-30" x="95.410156"/>
       <use xlink:href="#DejaVuSans-30" x="159.033203"/>
       <use xlink:href="#DejaVuSans-20" x="222.65625"/>
       <use xlink:href="#DejaVuSans-48" x="254.443359"/>
       <use xlink:href="#DejaVuSans-7a" x="329.638672"/>
      </g>
     </g>
    </g>
    <g id="xtick_11">
     <g id="line2d_38">
      <g>
       <use xlink:href="#mf95cb291de" x="99.011875" y="55.88" style="stroke: #000000; stroke-width: 0.8"/>
      </g>
     </g>
     <g id="text_23">
      <!-- 256.00 Hz -->
      <g transform="translate(73.543125 46.800313) scale(0.1 -0.1)">
       <use xlink:href="#DejaVuSans-32"/>
       <use xlink:href="#DejaVuSans-35" x="63.623047"/>
       <use xlink:href="#DejaVuSans-36" x="127.246094"/>
       <use xlink:href="#DejaVuSans-2e" x="190.869141"/>
       <use xlink:href="#DejaVuSans-30" x="222.65625"/>
       <use xlink:href="#DejaVuSans-30" x="286.279297"/>
       <use xlink:href="#DejaVuSans-20" x="349.902344"/>
       <use xlink:href="#DejaVuSans-48" x="381.689453"/>
       <use xlink:href="#DejaVuSans-7a" x="456.884766"/>
      </g>
     </g>
    </g>
    <g id="xtick_12">
     <g id="line2d_39">
      <g>
       <use xlink:href="#mf95cb291de" x="145.08375" y="55.88" style="stroke: #000000; stroke-width: 0.8"/>
      </g>
     </g>
     <g id="text_24">
      <!-- 512.00 Hz -->
      <g transform="translate(119.615 46.800313) scale(0.1 -0.1)">
       <use xlink:href="#DejaVuSans-35"/>
       <use xlink:href="#DejaVuSans-31" x="63.623047"/>
       <use xlink:href="#DejaVuSans-32" x="127.246094"/>
       <use xlink:href="#DejaVuSans-2e" x="190.869141"/>
       <use xlink:href="#DejaVuSans-30" x="222.65625"/>
       <use xlink:href="#DejaVuSans-30" x="286.279297"/>
       <use xlink:href="#DejaVuSans-20" x="349.902344"/>
       <use xlink:href="#DejaVuSans-48" x="381.689453"/>
       <use xlink:href="#DejaVuSans-7a" x="456.884766"/>
      </g>
     </g>
    </g>
    <g id="xtick_13">
     <g id="line2d_40">
      <g>
       <use xlink:href="#mf95cb291de" x="191.155625" y="55.88" style="stroke: #000000; stroke-width: 0.8"/>
      </g>
     </g>
     <g id="text_25">
      <!-- 768.00 Hz -->
      <g transform="translate(165.686875 46.800313) scale(0.1 -0.1)">
       <use xlink:href="#DejaVuSans-37"/>
       <use xlink:href="#DejaVuSans-36" x="63.623047"/>
       <use xlink:href="#DejaVuSans-38" x="127.246094"/>
       <use xlink:href="#DejaVuSans-2e" x="190.869141"/>
       <use xlink:href="#DejaVuSans-30" x="222.65625"/>
       <use xlink:href="#DejaVuSans-30" x="286.279297"/>
       <use xlink:href="#DejaVuSans-20" x="349.902344"/>
       <use xlink:href="#DejaVuSans-48" x="381.689453"/>
       <use xlink:href="#DejaVuSans-7a" x="456.884766"/>
      </g>
     </g>
    </g>
    <g id="xtick_14">
     <g id="line2d_41">
      <g>
       <use xlink:href="#mf95cb291de" x="237.2275" y="55.88" style="stroke: #000000; stroke-width: 0.8"/>
      </g>
     </g>
     <g id="text_26">
      <!-- 1024.00 Hz -->
      <g transform="translate(208.5775 46.800313) scale(0.1 -0.1)">
       <use xlink:href="#DejaVuSans-31"/>
       <use xlink:href="#DejaVuSans-30" x="63.623047"/>
       <use xlink:href="#DejaVuSans-32" x="127.246094"/>
       <use xlink:href="#DejaVuSans-34" x="190.869141"/>
       <use xlink:href="#DejaVuSans-2e" x="254.492188"/>
       <use xlink:href="#DejaVuSans-30" x="286.279297"/>
       <use xlink:href="#DejaVuSans-30" x="349.902344"/>
       <use xlink:href="#DejaVuSans-20" x="413.525391"/>
       <use xlink:href="#DejaVuSans-48" x="445.3125"/>
       <use xlink:href="#DejaVuSans-7a" x="520.507812"/>
      </g>
     </g>
    </g>
    <g id="xtick_15">
     <g id="line2d_42">
      <g>
       <use xlink:href="#mf95cb291de" x="283.299375" y="55.88" style="stroke: #000000; stroke-width: 0.8"/>
      </g>
     </g>
     <g id="text_27">
      <!-- 1280.00 Hz -->
      <g transform="translate(254.649375 46.800313) scale(0.1 -0.1)">
       <use xlink:href="#DejaVuSans-31"/>
       <use xlink:href="#DejaVuSans-32" x="63.623047"/>
       <use xlink:href="#DejaVuSans-38" x="127.246094"/>
       <use xlink:href="#DejaVuSans-30" x="190.869141"/>
       <use xlink:href="#DejaVuSans-2e" x="254.492188"/>
       <use xlink:href="#DejaVuSans-30" x="286.279297"/>
       <use xlink:href="#DejaVuSans-30" x="349.902344"/>
       <use xlink:href="#DejaVuSans-20" x="413.525391"/>
       <use xlink:href="#DejaVuSans-48" x="445.3125"/>
       <use xlink:href="#DejaVuSans-7a" x="520.507812"/>
      </g>
     </g>
    </g>
    <g id="xtick_16">
     <g id="line2d_43">
      <g>
       <use xlink:href="#mf95cb291de" x="329.37125" y="55.88" style="stroke: #000000; stroke-width: 0.8"/>
      </g>
     </g>
     <g id="text_28">
      <!-- 1536.00 Hz -->
      <g transform="translate(300.72125 46.800313) scale(0.1 -0.1)">
       <use xlink:href="#DejaVuSans-31"/>
       <use xlink:href="#DejaVuSans-35" x="63.623047"/>
       <use xlink:href="#DejaVuSans-33" x="127.246094"/>
       <use xlink:href="#DejaVuSans-36" x="190.869141"/>
       <use xlink:href="#DejaVuSans-2e" x="254.492188"/>
       <use xlink:href="#DejaVuSans-30" x="286.279297"/>
       <use xlink:href="#DejaVuSans-30" x="349.902344"/>
       <use xlink:href="#DejaVuSans-20" x="413.525391"/>
       <use xlink:href="#DejaVuSans-48" x="445.3125"/>
       <use xlink:href="#DejaVuSans-7a" x="520.507812"/>
      </g>
     </g>
    </g>
    <g id="xtick_17">
     <g id="line2d_44">
      <g>
       <use xlink:href="#mf95cb291de" x="375.443125" y="55.88" style="stroke: #000000; stroke-width: 0.8"/>
      </g>
     </g>
     <g id="text_29">
      <!-- 1792.00 Hz -->
      <g transform="translate(346.793125 46.800313) scale(0.1 -0.1)">
       <defs>
        <path id="DejaVuSans-39" d="M 703 97 
L 703 672 
Q 941 559 1184 500 
Q 1428 441 1663 441 
Q 2288 441 2617 861 
Q 2947 1281 2994 2138 
Q 2813 1869 2534 1725 
Q 2256 1581 1919 1581 
Q 1219 1581 811 2004 
Q 403 2428 403 3163 
Q 403 3881 828 4315 
Q 1253 4750 1959 4750 
Q 2769 4750 3195 4129 
Q 3622 3509 3622 2328 
Q 3622 1225 3098 567 
Q 2575 -91 1691 -91 
Q 1453 -91 1209 -44 
Q 966 3 703 97 
z
M 1959 2075 
Q 2384 2075 2632 2365 
Q 2881 2656 2881 3163 
Q 2881 3666 2632 3958 
Q 2384 4250 1959 4250 
Q 1534 4250 1286 3958 
Q 1038 3666 1038 3163 
Q 1038 2656 1286 2365 
Q 1534 2075 1959 2075 
z
" transform="scale(0.015625)"/>
       </defs>
       <use xlink:href="#DejaVuSans-31"/>
       <use xlink:href="#DejaVuSans-37" x="63.623047"/>
       <use xlink:href="#DejaVuSans-39" x="127.246094"/>
       <use xlink:href="#DejaVuSans-32" x="190.869141"/>
       <use xlink:href="#DejaVuSans-2e" x="254.492188"/>
       <use xlink:href="#DejaVuSans-30" x="286.279297"/>
       <use xlink:href="#DejaVuSans-30" x="349.902344"/>
       <use xlink:href="#DejaVuSans-20" x="413.525391"/>
       <use xlink:href="#DejaVuSans-48" x="445.3125"/>
       <use xlink:href="#DejaVuSans-7a" x="520.507812"/>
      </g>
     </g>
    </g>
    <g id="xtick_18">
     <g id="line2d_45">
      <g>
       <use xlink:href="#mf95cb291de" x="421.515" y="55.88" style="stroke: #000000; stroke-width: 0.8"/>
      </g>
     </g>
     <g id="text_30">
      <!-- 2048.00 Hz -->
      <g transform="translate(392.865 46.800313) scale(0.1 -0.1)">
       <use xlink:href="#DejaVuSans-32"/>
       <use xlink:href="#DejaVuSans-30" x="63.623047"/>
       <use xlink:href="#DejaVuSans-34" x="127.246094"/>
       <use xlink:href="#DejaVuSans-38" x="190.869141"/>
       <use xlink:href="#DejaVuSans-2e" x="254.492188"/>
       <use xlink:href="#DejaVuSans-30" x="286.279297"/>
       <use xlink:href="#DejaVuSans-30" x="349.902344"/>
       <use xlink:href="#DejaVuSans-20" x="413.525391"/>
       <use xlink:href="#DejaVuSans-48" x="445.3125"/>
       <use xlink:href="#DejaVuSans-7a" x="520.507812"/>
      </g>
     </g>
    </g>
    <g id="text_31">
     <!-- Frequency (Hz) -->
     <g transform="translate(199.522812 35.201875) scale(0.1 -0.1)">
      <use xlink:href="#DejaVuSans-46"/>
      <use xlink:href="#DejaVuSans-72" x="50.269531"/>
      <use xlink:href="#DejaVuSans-65" x="89.132812"/>
      <use xlink:href="#DejaVuSans-71" x="150.65625"/>
      <use xlink:href="#DejaVuSans-75" x="214.132812"/>
      <use xlink:href="#DejaVuSans-65" x="277.511719"/>
      <use xlink:href="#DejaVuSans-6e" x="339.035156"/>
      <use xlink:href="#DejaVuSans-63" x="402.414062"/>
      <use xlink:href="#DejaVuSans-79" x="457.394531"/>
      <use xlink:href="#DejaVuSans-20" x="516.574219"/>
      <use xlink:href="#DejaVuSans-28" x="548.361328"/>
      <use xlink:href="#DejaVuSans-48" x="587.375"/>
      <use xlink:href="#DejaVuSans-7a" x="662.570312"/>
      <use xlink:href="#DejaVuSans-29" x="715.060547"/>
     </g>
    </g>
   </g>
   <g id="patch_8">
    <path d="M 52.94 298.067 
L 52.94 55.88 
" style="fill: none; stroke: #000000; stroke-width: 0.8; stroke-linejoin: miter; stroke-linecap: square"/>
   </g>
   <g id="patch_9">
    <path d="M 421.515 298.067 
L 421.515 55.88 
" style="fill: none; stroke: #000000; stroke-width: 0.8; stroke-linejoin: miter; stroke-linecap: square"/>
   </g>
   <g id="patch_10">
    <path d="M 52.94 298.067 
L 421.515 298.067 
" style="fill: none; stroke: #000000; stroke-width: 0.8; stroke-linejoin: miter; stroke-linecap: square"/>
   </g>
   <g id="patch_11">
    <path d="M 52.94 55.88 
L 421.515 55.88 
" style="fill: none; stroke: #000000; stroke-width: 0.8; stroke-linejoin: miter; stroke-linecap: square"/>
   </g>
  </g>
 </g>
 <defs>
  <clipPath id="p8ec9753ccf">
   <rect x="52.94" y="55.88" width="368.575" height="242.187"/>
  </clipPath>
 </defs>
</svg>
