<?xml version="1.0" encoding="utf-8" standalone="no"?>
<!DOCTYPE svg PUBLIC "-//W3C//DTD SVG 1.1//EN"
  "http://www.w3.org/Graphics/SVG/1.1/DTD/svg11.dtd">
<svg xmlns:xlink="http://www.w3.org/1999/xlink" width="720pt" height="360pt" viewBox="0 0 720 360" xmlns="http://www.w3.org/2000/svg" version="1.1">
 <metadata>
  <rdf:RDF xmlns:dc="http://purl.org/dc/elements/1.1/" xmlns:cc="http://creativecommons.org/ns#" xmlns:rdf="http://www.w3.org/1999/02/22-rdf-syntax-ns#">
   <cc:Work>
    <dc:type rdf:resource="http://purl.org/dc/dcmitype/StillImage"/>
    <dc:date>2024-08-07T08:58:50.898551</dc:date>
    <dc:format>image/svg+xml</dc:format>
    <dc:creator>
     <cc:Agent>
      <dc:title>Matplotlib v3.8.2, https://matplotlib.org/</dc:title>
     </cc:Agent>
    </dc:creator>
   </cc:Work>
  </rdf:RDF>
 </metadata>
 <defs>
  <style type="text/css">*{stroke-linejoin: round; stroke-linecap: butt}</style>
 </defs>
 <g id="figure_1">
  <g id="patch_1">
   <path d="M 0 360 
L 720 360 
L 720 0 
L 0 0 
z
" style="fill: #ffffff"/>
  </g>
  <g id="axes_1">
   <g id="patch_2">
    <path d="M 38.86 157.52 
L 709.2 157.52 
L 709.2 26.88 
L 38.86 26.88 
z
" style="fill: #ffffff"/>
   </g>
   <g id="matplotlib.axis_1">
    <g id="xtick_1">
     <g id="line2d_1">
      <defs>
       <path id="medab8569d7" d="M 0 0 
L 0 3.5 
" style="stroke: #000000; stroke-width: 0.8"/>
      </defs>
      <g>
       <use xlink:href="#medab8569d7" x="69.33" y="157.52" style="stroke: #000000; stroke-width: 0.8"/>
      </g>
     </g>
     <g id="text_1">
      <!-- 0 -->
      <g transform="translate(66.14875 172.118437) scale(0.1 -0.1)">
       <defs>
        <path id="DejaVuSans-30" d="M 2034 4250 
Q 1547 4250 1301 3770 
Q 1056 3291 1056 2328 
Q 1056 1369 1301 889 
Q 1547 409 2034 409 
Q 2525 409 2770 889 
Q 3016 1369 3016 2328 
Q 3016 3291 2770 3770 
Q 2525 4250 2034 4250 
z
M 2034 4750 
Q 2819 4750 3233 4129 
Q 3647 3509 3647 2328 
Q 3647 1150 3233 529 
Q 2819 -91 2034 -91 
Q 1250 -91 836 529 
Q 422 1150 422 2328 
Q 422 3509 836 4129 
Q 1250 4750 2034 4750 
z
" transform="scale(0.015625)"/>
       </defs>
       <use xlink:href="#DejaVuSans-30"/>
      </g>
     </g>
    </g>
    <g id="xtick_2">
     <g id="line2d_2">
      <g>
       <use xlink:href="#medab8569d7" x="151.681351" y="157.52" style="stroke: #000000; stroke-width: 0.8"/>
      </g>
     </g>
     <g id="text_2">
      <!-- 5 -->
      <g transform="translate(148.500101 172.118437) scale(0.1 -0.1)">
       <defs>
        <path id="DejaVuSans-35" d="M 691 4666 
L 3169 4666 
L 3169 4134 
L 1269 4134 
L 1269 2991 
Q 1406 3038 1543 3061 
Q 1681 3084 1819 3084 
Q 2600 3084 3056 2656 
Q 3513 2228 3513 1497 
Q 3513 744 3044 326 
Q 2575 -91 1722 -91 
Q 1428 -91 1123 -41 
Q 819 9 494 109 
L 494 744 
Q 775 591 1075 516 
Q 1375 441 1709 441 
Q 2250 441 2565 725 
Q 2881 1009 2881 1497 
Q 2881 1984 2565 2268 
Q 2250 2553 1709 2553 
Q 1456 2553 1204 2497 
Q 953 2441 691 2322 
L 691 4666 
z
" transform="scale(0.015625)"/>
       </defs>
       <use xlink:href="#DejaVuSans-35"/>
      </g>
     </g>
    </g>
    <g id="xtick_3">
     <g id="line2d_3">
      <g>
       <use xlink:href="#medab8569d7" x="234.032703" y="157.52" style="stroke: #000000; stroke-width: 0.8"/>
      </g>
     </g>
     <g id="text_3">
      <!-- 10 -->
      <g transform="translate(227.670203 172.118437) scale(0.1 -0.1)">
       <defs>
        <path id="DejaVuSans-31" d="M 794 531 
L 1825 531 
L 1825 4091 
L 703 3866 
L 703 4441 
L 1819 4666 
L 2450 4666 
L 2450 531 
L 3481 531 
L 3481 0 
L 794 0 
L 794 531 
z
" transform="scale(0.015625)"/>
       </defs>
       <use xlink:href="#DejaVuSans-31"/>
       <use xlink:href="#DejaVuSans-30" x="63.623047"/>
      </g>
     </g>
    </g>
    <g id="xtick_4">
     <g id="line2d_4">
      <g>
       <use xlink:href="#medab8569d7" x="316.384054" y="157.52" style="stroke: #000000; stroke-width: 0.8"/>
      </g>
     </g>
     <g id="text_4">
      <!-- 15 -->
      <g transform="translate(310.021554 172.118437) scale(0.1 -0.1)">
       <use xlink:href="#DejaVuSans-31"/>
       <use xlink:href="#DejaVuSans-35" x="63.623047"/>
      </g>
     </g>
    </g>
    <g id="xtick_5">
     <g id="line2d_5">
      <g>
       <use xlink:href="#medab8569d7" x="398.735405" y="157.52" style="stroke: #000000; stroke-width: 0.8"/>
      </g>
     </g>
     <g id="text_5">
      <!-- 20 -->
      <g transform="translate(392.372905 172.118437) scale(0.1 -0.1)">
       <defs>
        <path id="DejaVuSans-32" d="M 1228 531 
L 3431 531 
L 3431 0 
L 469 0 
L 469 531 
Q 828 903 1448 1529 
Q 2069 2156 2228 2338 
Q 2531 2678 2651 2914 
Q 2772 3150 2772 3378 
Q 2772 3750 2511 3984 
Q 2250 4219 1831 4219 
Q 1534 4219 1204 4116 
Q 875 4013 500 3803 
L 500 4441 
Q 881 4594 1212 4672 
Q 1544 4750 1819 4750 
Q 2544 4750 2975 4387 
Q 3406 4025 3406 3419 
Q 3406 3131 3298 2873 
Q 3191 2616 2906 2266 
Q 2828 2175 2409 1742 
Q 1991 1309 1228 531 
z
" transform="scale(0.015625)"/>
       </defs>
       <use xlink:href="#DejaVuSans-32"/>
       <use xlink:href="#DejaVuSans-30" x="63.623047"/>
      </g>
     </g>
    </g>
    <g id="xtick_6">
     <g id="line2d_6">
      <g>
       <use xlink:href="#medab8569d7" x="481.086757" y="157.52" style="stroke: #000000; stroke-width: 0.8"/>
      </g>
     </g>
     <g id="text_6">
      <!-- 25 -->
      <g transform="translate(474.724257 172.118437) scale(0.1 -0.1)">
       <use xlink:href="#DejaVuSans-32"/>
       <use xlink:href="#DejaVuSans-35" x="63.623047"/>
      </g>
     </g>
    </g>
    <g id="xtick_7">
     <g id="line2d_7">
      <g>
       <use xlink:href="#medab8569d7" x="563.438108" y="157.52" style="stroke: #000000; stroke-width: 0.8"/>
      </g>
     </g>
     <g id="text_7">
      <!-- 30 -->
      <g transform="translate(557.075608 172.118437) scale(0.1 -0.1)">
       <defs>
        <path id="DejaVuSans-33" d="M 2597 2516 
Q 3050 2419 3304 2112 
Q 3559 1806 3559 1356 
Q 3559 666 3084 287 
Q 2609 -91 1734 -91 
Q 1441 -91 1130 -33 
Q 819 25 488 141 
L 488 750 
Q 750 597 1062 519 
Q 1375 441 1716 441 
Q 2309 441 2620 675 
Q 2931 909 2931 1356 
Q 2931 1769 2642 2001 
Q 2353 2234 1838 2234 
L 1294 2234 
L 1294 2753 
L 1863 2753 
Q 2328 2753 2575 2939 
Q 2822 3125 2822 3475 
Q 2822 3834 2567 4026 
Q 2313 4219 1838 4219 
Q 1578 4219 1281 4162 
Q 984 4106 628 3988 
L 628 4550 
Q 988 4650 1302 4700 
Q 1616 4750 1894 4750 
Q 2613 4750 3031 4423 
Q 3450 4097 3450 3541 
Q 3450 3153 3228 2886 
Q 3006 2619 2597 2516 
z
" transform="scale(0.015625)"/>
       </defs>
       <use xlink:href="#DejaVuSans-33"/>
       <use xlink:href="#DejaVuSans-30" x="63.623047"/>
      </g>
     </g>
    </g>
    <g id="xtick_8">
     <g id="line2d_8">
      <g>
       <use xlink:href="#medab8569d7" x="645.789459" y="157.52" style="stroke: #000000; stroke-width: 0.8"/>
      </g>
     </g>
     <g id="text_8">
      <!-- 35 -->
      <g transform="translate(639.426959 172.118437) scale(0.1 -0.1)">
       <use xlink:href="#DejaVuSans-33"/>
       <use xlink:href="#DejaVuSans-35" x="63.623047"/>
      </g>
     </g>
    </g>
   </g>
   <g id="matplotlib.axis_2">
    <g id="ytick_1">
     <g id="line2d_9">
      <defs>
       <path id="mecbd645088" d="M 0 0 
L -3.5 0 
" style="stroke: #000000; stroke-width: 0.8"/>
      </defs>
      <g>
       <use xlink:href="#mecbd645088" x="38.86" y="131.83986" style="stroke: #000000; stroke-width: 0.8"/>
      </g>
     </g>
     <g id="text_9">
      <!-- 0.0 -->
      <g transform="translate(15.956875 135.639079) scale(0.1 -0.1)">
       <defs>
        <path id="DejaVuSans-2e" d="M 684 794 
L 1344 794 
L 1344 0 
L 684 0 
L 684 794 
z
" transform="scale(0.015625)"/>
       </defs>
       <use xlink:href="#DejaVuSans-30"/>
       <use xlink:href="#DejaVuSans-2e" x="63.623047"/>
       <use xlink:href="#DejaVuSans-30" x="95.410156"/>
      </g>
     </g>
    </g>
    <g id="ytick_2">
     <g id="line2d_10">
      <g>
       <use xlink:href="#mecbd645088" x="38.86" y="100.259466" style="stroke: #000000; stroke-width: 0.8"/>
      </g>
     </g>
     <g id="text_10">
      <!-- 0.1 -->
      <g transform="translate(15.956875 104.058684) scale(0.1 -0.1)">
       <use xlink:href="#DejaVuSans-30"/>
       <use xlink:href="#DejaVuSans-2e" x="63.623047"/>
       <use xlink:href="#DejaVuSans-31" x="95.410156"/>
      </g>
     </g>
    </g>
    <g id="ytick_3">
     <g id="line2d_11">
      <g>
       <use xlink:href="#mecbd645088" x="38.86" y="68.679071" style="stroke: #000000; stroke-width: 0.8"/>
      </g>
     </g>
     <g id="text_11">
      <!-- 0.2 -->
      <g transform="translate(15.956875 72.47829) scale(0.1 -0.1)">
       <use xlink:href="#DejaVuSans-30"/>
       <use xlink:href="#DejaVuSans-2e" x="63.623047"/>
       <use xlink:href="#DejaVuSans-32" x="95.410156"/>
      </g>
     </g>
    </g>
    <g id="ytick_4">
     <g id="line2d_12">
      <g>
       <use xlink:href="#mecbd645088" x="38.86" y="37.098677" style="stroke: #000000; stroke-width: 0.8"/>
      </g>
     </g>
     <g id="text_12">
      <!-- 0.3 -->
      <g transform="translate(15.956875 40.897896) scale(0.1 -0.1)">
       <use xlink:href="#DejaVuSans-30"/>
       <use xlink:href="#DejaVuSans-2e" x="63.623047"/>
       <use xlink:href="#DejaVuSans-33" x="95.410156"/>
      </g>
     </g>
    </g>
   </g>
   <g id="LineCollection_1">
    <path d="M 69.33 131.83986 
L 69.33 131.84776 
" clip-path="url(#p095d27016d)" style="fill: none; stroke: #1f77b4; stroke-width: 1.5"/>
    <path d="M 85.80027 131.83986 
L 85.80027 132.390361 
" clip-path="url(#p095d27016d)" style="fill: none; stroke: #1f77b4; stroke-width: 1.5"/>
    <path d="M 102.270541 131.83986 
L 102.270541 132.643689 
" clip-path="url(#p095d27016d)" style="fill: none; stroke: #1f77b4; stroke-width: 1.5"/>
    <path d="M 118.740811 131.83986 
L 118.740811 132.080922 
" clip-path="url(#p095d27016d)" style="fill: none; stroke: #1f77b4; stroke-width: 1.5"/>
    <path d="M 135.211081 131.83986 
L 135.211081 130.648421 
" clip-path="url(#p095d27016d)" style="fill: none; stroke: #1f77b4; stroke-width: 1.5"/>
    <path d="M 151.681351 131.83986 
L 151.681351 129.71223 
" clip-path="url(#p095d27016d)" style="fill: none; stroke: #1f77b4; stroke-width: 1.5"/>
    <path d="M 168.151622 131.83986 
L 168.151622 131.004993 
" clip-path="url(#p095d27016d)" style="fill: none; stroke: #1f77b4; stroke-width: 1.5"/>
    <path d="M 184.621892 131.83986 
L 184.621892 134.327569 
" clip-path="url(#p095d27016d)" style="fill: none; stroke: #1f77b4; stroke-width: 1.5"/>
    <path d="M 201.092162 131.83986 
L 201.092162 136.524402 
" clip-path="url(#p095d27016d)" style="fill: none; stroke: #1f77b4; stroke-width: 1.5"/>
    <path d="M 217.562432 131.83986 
L 217.562432 133.973122 
" clip-path="url(#p095d27016d)" style="fill: none; stroke: #1f77b4; stroke-width: 1.5"/>
    <path d="M 234.032703 131.83986 
L 234.032703 127.165815 
" clip-path="url(#p095d27016d)" style="fill: none; stroke: #1f77b4; stroke-width: 1.5"/>
    <path d="M 250.502973 131.83986 
L 250.502973 122.406027 
" clip-path="url(#p095d27016d)" style="fill: none; stroke: #1f77b4; stroke-width: 1.5"/>
    <path d="M 266.973243 131.83986 
L 266.973243 126.973332 
" clip-path="url(#p095d27016d)" style="fill: none; stroke: #1f77b4; stroke-width: 1.5"/>
    <path d="M 283.443514 131.83986 
L 283.443514 140.587217 
" clip-path="url(#p095d27016d)" style="fill: none; stroke: #1f77b4; stroke-width: 1.5"/>
    <path d="M 299.913784 131.83986 
L 299.913784 151.581818 
" clip-path="url(#p095d27016d)" style="fill: none; stroke: #1f77b4; stroke-width: 1.5"/>
    <path d="M 316.384054 131.83986 
L 316.384054 143.900171 
" clip-path="url(#p095d27016d)" style="fill: none; stroke: #1f77b4; stroke-width: 1.5"/>
    <path d="M 332.854324 131.83986 
L 332.854324 111.171311 
" clip-path="url(#p095d27016d)" style="fill: none; stroke: #1f77b4; stroke-width: 1.5"/>
    <path d="M 349.324595 131.83986 
L 349.324595 65.728229 
" clip-path="url(#p095d27016d)" style="fill: none; stroke: #1f77b4; stroke-width: 1.5"/>
    <path d="M 365.794865 131.83986 
L 365.794865 32.818182 
" clip-path="url(#p095d27016d)" style="fill: none; stroke: #1f77b4; stroke-width: 1.5"/>
    <path d="M 382.265135 131.83986 
L 382.265135 32.818182 
" clip-path="url(#p095d27016d)" style="fill: none; stroke: #1f77b4; stroke-width: 1.5"/>
    <path d="M 398.735405 131.83986 
L 398.735405 65.728229 
" clip-path="url(#p095d27016d)" style="fill: none; stroke: #1f77b4; stroke-width: 1.5"/>
    <path d="M 415.205676 131.83986 
L 415.205676 111.171311 
" clip-path="url(#p095d27016d)" style="fill: none; stroke: #1f77b4; stroke-width: 1.5"/>
    <path d="M 431.675946 131.83986 
L 431.675946 143.900171 
" clip-path="url(#p095d27016d)" style="fill: none; stroke: #1f77b4; stroke-width: 1.5"/>
    <path d="M 448.146216 131.83986 
L 448.146216 151.581818 
" clip-path="url(#p095d27016d)" style="fill: none; stroke: #1f77b4; stroke-width: 1.5"/>
    <path d="M 464.616486 131.83986 
L 464.616486 140.587217 
" clip-path="url(#p095d27016d)" style="fill: none; stroke: #1f77b4; stroke-width: 1.5"/>
    <path d="M 481.086757 131.83986 
L 481.086757 126.973332 
" clip-path="url(#p095d27016d)" style="fill: none; stroke: #1f77b4; stroke-width: 1.5"/>
    <path d="M 497.557027 131.83986 
L 497.557027 122.406027 
" clip-path="url(#p095d27016d)" style="fill: none; stroke: #1f77b4; stroke-width: 1.5"/>
    <path d="M 514.027297 131.83986 
L 514.027297 127.165815 
" clip-path="url(#p095d27016d)" style="fill: none; stroke: #1f77b4; stroke-width: 1.5"/>
    <path d="M 530.497568 131.83986 
L 530.497568 133.973122 
" clip-path="url(#p095d27016d)" style="fill: none; stroke: #1f77b4; stroke-width: 1.5"/>
    <path d="M 546.967838 131.83986 
L 546.967838 136.524402 
" clip-path="url(#p095d27016d)" style="fill: none; stroke: #1f77b4; stroke-width: 1.5"/>
    <path d="M 563.438108 131.83986 
L 563.438108 134.327569 
" clip-path="url(#p095d27016d)" style="fill: none; stroke: #1f77b4; stroke-width: 1.5"/>
    <path d="M 579.908378 131.83986 
L 579.908378 131.004993 
" clip-path="url(#p095d27016d)" style="fill: none; stroke: #1f77b4; stroke-width: 1.5"/>
    <path d="M 596.378649 131.83986 
L 596.378649 129.71223 
" clip-path="url(#p095d27016d)" style="fill: none; stroke: #1f77b4; stroke-width: 1.5"/>
    <path d="M 612.848919 131.83986 
L 612.848919 130.648421 
" clip-path="url(#p095d27016d)" style="fill: none; stroke: #1f77b4; stroke-width: 1.5"/>
    <path d="M 629.319189 131.83986 
L 629.319189 132.080922 
" clip-path="url(#p095d27016d)" style="fill: none; stroke: #1f77b4; stroke-width: 1.5"/>
    <path d="M 645.789459 131.83986 
L 645.789459 132.643689 
" clip-path="url(#p095d27016d)" style="fill: none; stroke: #1f77b4; stroke-width: 1.5"/>
    <path d="M 662.25973 131.83986 
L 662.25973 132.390361 
" clip-path="url(#p095d27016d)" style="fill: none; stroke: #1f77b4; stroke-width: 1.5"/>
    <path d="M 678.73 131.83986 
L 678.73 131.84776 
" clip-path="url(#p095d27016d)" style="fill: none; stroke: #1f77b4; stroke-width: 1.5"/>
   </g>
   <g id="line2d_13">
    <defs>
     <path id="me3db92b27b" d="M 0 3 
C 0.795609 3 1.55874 2.683901 2.12132 2.12132 
C 2.683901 1.55874 3 0.795609 3 0 
C 3 -0.795609 2.683901 -1.55874 2.12132 -2.12132 
C 1.55874 -2.683901 0.795609 -3 0 -3 
C -0.795609 -3 -1.55874 -2.683901 -2.12132 -2.12132 
C -2.683901 -1.55874 -3 -0.795609 -3 0 
C -3 0.795609 -2.683901 1.55874 -2.12132 2.12132 
C -1.55874 2.683901 -0.795609 3 0 3 
z
" style="stroke: #1f77b4"/>
    </defs>
    <g clip-path="url(#p095d27016d)">
     <use xlink:href="#me3db92b27b" x="69.33" y="131.84776" style="fill: #1f77b4; stroke: #1f77b4"/>
     <use xlink:href="#me3db92b27b" x="85.80027" y="132.390361" style="fill: #1f77b4; stroke: #1f77b4"/>
     <use xlink:href="#me3db92b27b" x="102.270541" y="132.643689" style="fill: #1f77b4; stroke: #1f77b4"/>
     <use xlink:href="#me3db92b27b" x="118.740811" y="132.080922" style="fill: #1f77b4; stroke: #1f77b4"/>
     <use xlink:href="#me3db92b27b" x="135.211081" y="130.648421" style="fill: #1f77b4; stroke: #1f77b4"/>
     <use xlink:href="#me3db92b27b" x="151.681351" y="129.71223" style="fill: #1f77b4; stroke: #1f77b4"/>
     <use xlink:href="#me3db92b27b" x="168.151622" y="131.004993" style="fill: #1f77b4; stroke: #1f77b4"/>
     <use xlink:href="#me3db92b27b" x="184.621892" y="134.327569" style="fill: #1f77b4; stroke: #1f77b4"/>
     <use xlink:href="#me3db92b27b" x="201.092162" y="136.524402" style="fill: #1f77b4; stroke: #1f77b4"/>
     <use xlink:href="#me3db92b27b" x="217.562432" y="133.973122" style="fill: #1f77b4; stroke: #1f77b4"/>
     <use xlink:href="#me3db92b27b" x="234.032703" y="127.165815" style="fill: #1f77b4; stroke: #1f77b4"/>
     <use xlink:href="#me3db92b27b" x="250.502973" y="122.406027" style="fill: #1f77b4; stroke: #1f77b4"/>
     <use xlink:href="#me3db92b27b" x="266.973243" y="126.973332" style="fill: #1f77b4; stroke: #1f77b4"/>
     <use xlink:href="#me3db92b27b" x="283.443514" y="140.587217" style="fill: #1f77b4; stroke: #1f77b4"/>
     <use xlink:href="#me3db92b27b" x="299.913784" y="151.581818" style="fill: #1f77b4; stroke: #1f77b4"/>
     <use xlink:href="#me3db92b27b" x="316.384054" y="143.900171" style="fill: #1f77b4; stroke: #1f77b4"/>
     <use xlink:href="#me3db92b27b" x="332.854324" y="111.171311" style="fill: #1f77b4; stroke: #1f77b4"/>
     <use xlink:href="#me3db92b27b" x="349.324595" y="65.728229" style="fill: #1f77b4; stroke: #1f77b4"/>
     <use xlink:href="#me3db92b27b" x="365.794865" y="32.818182" style="fill: #1f77b4; stroke: #1f77b4"/>
     <use xlink:href="#me3db92b27b" x="382.265135" y="32.818182" style="fill: #1f77b4; stroke: #1f77b4"/>
     <use xlink:href="#me3db92b27b" x="398.735405" y="65.728229" style="fill: #1f77b4; stroke: #1f77b4"/>
     <use xlink:href="#me3db92b27b" x="415.205676" y="111.171311" style="fill: #1f77b4; stroke: #1f77b4"/>
     <use xlink:href="#me3db92b27b" x="431.675946" y="143.900171" style="fill: #1f77b4; stroke: #1f77b4"/>
     <use xlink:href="#me3db92b27b" x="448.146216" y="151.581818" style="fill: #1f77b4; stroke: #1f77b4"/>
     <use xlink:href="#me3db92b27b" x="464.616486" y="140.587217" style="fill: #1f77b4; stroke: #1f77b4"/>
     <use xlink:href="#me3db92b27b" x="481.086757" y="126.973332" style="fill: #1f77b4; stroke: #1f77b4"/>
     <use xlink:href="#me3db92b27b" x="497.557027" y="122.406027" style="fill: #1f77b4; stroke: #1f77b4"/>
     <use xlink:href="#me3db92b27b" x="514.027297" y="127.165815" style="fill: #1f77b4; stroke: #1f77b4"/>
     <use xlink:href="#me3db92b27b" x="530.497568" y="133.973122" style="fill: #1f77b4; stroke: #1f77b4"/>
     <use xlink:href="#me3db92b27b" x="546.967838" y="136.524402" style="fill: #1f77b4; stroke: #1f77b4"/>
     <use xlink:href="#me3db92b27b" x="563.438108" y="134.327569" style="fill: #1f77b4; stroke: #1f77b4"/>
     <use xlink:href="#me3db92b27b" x="579.908378" y="131.004993" style="fill: #1f77b4; stroke: #1f77b4"/>
     <use xlink:href="#me3db92b27b" x="596.378649" y="129.71223" style="fill: #1f77b4; stroke: #1f77b4"/>
     <use xlink:href="#me3db92b27b" x="612.848919" y="130.648421" style="fill: #1f77b4; stroke: #1f77b4"/>
     <use xlink:href="#me3db92b27b" x="629.319189" y="132.080922" style="fill: #1f77b4; stroke: #1f77b4"/>
     <use xlink:href="#me3db92b27b" x="645.789459" y="132.643689" style="fill: #1f77b4; stroke: #1f77b4"/>
     <use xlink:href="#me3db92b27b" x="662.25973" y="132.390361" style="fill: #1f77b4; stroke: #1f77b4"/>
     <use xlink:href="#me3db92b27b" x="678.73" y="131.84776" style="fill: #1f77b4; stroke: #1f77b4"/>
    </g>
   </g>
   <g id="line2d_14">
    <path d="M 69.33 131.83986 
L 678.73 131.83986 
" clip-path="url(#p095d27016d)" style="fill: none; stroke: #d62728; stroke-width: 1.5; stroke-linecap: square"/>
   </g>
   <g id="patch_3">
    <path d="M 38.86 157.52 
L 38.86 26.88 
" style="fill: none; stroke: #000000; stroke-width: 0.8; stroke-linejoin: miter; stroke-linecap: square"/>
   </g>
   <g id="patch_4">
    <path d="M 709.2 157.52 
L 709.2 26.88 
" style="fill: none; stroke: #000000; stroke-width: 0.8; stroke-linejoin: miter; stroke-linecap: square"/>
   </g>
   <g id="patch_5">
    <path d="M 38.86 157.52 
L 709.2 157.52 
" style="fill: none; stroke: #000000; stroke-width: 0.8; stroke-linejoin: miter; stroke-linecap: square"/>
   </g>
   <g id="patch_6">
    <path d="M 38.86 26.88 
L 709.2 26.88 
" style="fill: none; stroke: #000000; stroke-width: 0.8; stroke-linejoin: miter; stroke-linecap: square"/>
   </g>
   <g id="text_13">
    <!-- Impulse Response -->
    <g transform="translate(319.595938 20.88) scale(0.12 -0.12)">
     <defs>
      <path id="DejaVuSans-49" d="M 628 4666 
L 1259 4666 
L 1259 0 
L 628 0 
L 628 4666 
z
" transform="scale(0.015625)"/>
      <path id="DejaVuSans-6d" d="M 3328 2828 
Q 3544 3216 3844 3400 
Q 4144 3584 4550 3584 
Q 5097 3584 5394 3201 
Q 5691 2819 5691 2113 
L 5691 0 
L 5113 0 
L 5113 2094 
Q 5113 2597 4934 2840 
Q 4756 3084 4391 3084 
Q 3944 3084 3684 2787 
Q 3425 2491 3425 1978 
L 3425 0 
L 2847 0 
L 2847 2094 
Q 2847 2600 2669 2842 
Q 2491 3084 2119 3084 
Q 1678 3084 1418 2786 
Q 1159 2488 1159 1978 
L 1159 0 
L 581 0 
L 581 3500 
L 1159 3500 
L 1159 2956 
Q 1356 3278 1631 3431 
Q 1906 3584 2284 3584 
Q 2666 3584 2933 3390 
Q 3200 3197 3328 2828 
z
" transform="scale(0.015625)"/>
      <path id="DejaVuSans-70" d="M 1159 525 
L 1159 -1331 
L 581 -1331 
L 581 3500 
L 1159 3500 
L 1159 2969 
Q 1341 3281 1617 3432 
Q 1894 3584 2278 3584 
Q 2916 3584 3314 3078 
Q 3713 2572 3713 1747 
Q 3713 922 3314 415 
Q 2916 -91 2278 -91 
Q 1894 -91 1617 61 
Q 1341 213 1159 525 
z
M 3116 1747 
Q 3116 2381 2855 2742 
Q 2594 3103 2138 3103 
Q 1681 3103 1420 2742 
Q 1159 2381 1159 1747 
Q 1159 1113 1420 752 
Q 1681 391 2138 391 
Q 2594 391 2855 752 
Q 3116 1113 3116 1747 
z
" transform="scale(0.015625)"/>
      <path id="DejaVuSans-75" d="M 544 1381 
L 544 3500 
L 1119 3500 
L 1119 1403 
Q 1119 906 1312 657 
Q 1506 409 1894 409 
Q 2359 409 2629 706 
Q 2900 1003 2900 1516 
L 2900 3500 
L 3475 3500 
L 3475 0 
L 2900 0 
L 2900 538 
Q 2691 219 2414 64 
Q 2138 -91 1772 -91 
Q 1169 -91 856 284 
Q 544 659 544 1381 
z
M 1991 3584 
L 1991 3584 
z
" transform="scale(0.015625)"/>
      <path id="DejaVuSans-6c" d="M 603 4863 
L 1178 4863 
L 1178 0 
L 603 0 
L 603 4863 
z
" transform="scale(0.015625)"/>
      <path id="DejaVuSans-73" d="M 2834 3397 
L 2834 2853 
Q 2591 2978 2328 3040 
Q 2066 3103 1784 3103 
Q 1356 3103 1142 2972 
Q 928 2841 928 2578 
Q 928 2378 1081 2264 
Q 1234 2150 1697 2047 
L 1894 2003 
Q 2506 1872 2764 1633 
Q 3022 1394 3022 966 
Q 3022 478 2636 193 
Q 2250 -91 1575 -91 
Q 1294 -91 989 -36 
Q 684 19 347 128 
L 347 722 
Q 666 556 975 473 
Q 1284 391 1588 391 
Q 1994 391 2212 530 
Q 2431 669 2431 922 
Q 2431 1156 2273 1281 
Q 2116 1406 1581 1522 
L 1381 1569 
Q 847 1681 609 1914 
Q 372 2147 372 2553 
Q 372 3047 722 3315 
Q 1072 3584 1716 3584 
Q 2034 3584 2315 3537 
Q 2597 3491 2834 3397 
z
" transform="scale(0.015625)"/>
      <path id="DejaVuSans-65" d="M 3597 1894 
L 3597 1613 
L 953 1613 
Q 991 1019 1311 708 
Q 1631 397 2203 397 
Q 2534 397 2845 478 
Q 3156 559 3463 722 
L 3463 178 
Q 3153 47 2828 -22 
Q 2503 -91 2169 -91 
Q 1331 -91 842 396 
Q 353 884 353 1716 
Q 353 2575 817 3079 
Q 1281 3584 2069 3584 
Q 2775 3584 3186 3129 
Q 3597 2675 3597 1894 
z
M 3022 2063 
Q 3016 2534 2758 2815 
Q 2500 3097 2075 3097 
Q 1594 3097 1305 2825 
Q 1016 2553 972 2059 
L 3022 2063 
z
" transform="scale(0.015625)"/>
      <path id="DejaVuSans-20" transform="scale(0.015625)"/>
      <path id="DejaVuSans-52" d="M 2841 2188 
Q 3044 2119 3236 1894 
Q 3428 1669 3622 1275 
L 4263 0 
L 3584 0 
L 2988 1197 
Q 2756 1666 2539 1819 
Q 2322 1972 1947 1972 
L 1259 1972 
L 1259 0 
L 628 0 
L 628 4666 
L 2053 4666 
Q 2853 4666 3247 4331 
Q 3641 3997 3641 3322 
Q 3641 2881 3436 2590 
Q 3231 2300 2841 2188 
z
M 1259 4147 
L 1259 2491 
L 2053 2491 
Q 2509 2491 2742 2702 
Q 2975 2913 2975 3322 
Q 2975 3731 2742 3939 
Q 2509 4147 2053 4147 
L 1259 4147 
z
" transform="scale(0.015625)"/>
      <path id="DejaVuSans-6f" d="M 1959 3097 
Q 1497 3097 1228 2736 
Q 959 2375 959 1747 
Q 959 1119 1226 758 
Q 1494 397 1959 397 
Q 2419 397 2687 759 
Q 2956 1122 2956 1747 
Q 2956 2369 2687 2733 
Q 2419 3097 1959 3097 
z
M 1959 3584 
Q 2709 3584 3137 3096 
Q 3566 2609 3566 1747 
Q 3566 888 3137 398 
Q 2709 -91 1959 -91 
Q 1206 -91 779 398 
Q 353 888 353 1747 
Q 353 2609 779 3096 
Q 1206 3584 1959 3584 
z
" transform="scale(0.015625)"/>
      <path id="DejaVuSans-6e" d="M 3513 2113 
L 3513 0 
L 2938 0 
L 2938 2094 
Q 2938 2591 2744 2837 
Q 2550 3084 2163 3084 
Q 1697 3084 1428 2787 
Q 1159 2491 1159 1978 
L 1159 0 
L 581 0 
L 581 3500 
L 1159 3500 
L 1159 2956 
Q 1366 3272 1645 3428 
Q 1925 3584 2291 3584 
Q 2894 3584 3203 3211 
Q 3513 2838 3513 2113 
z
" transform="scale(0.015625)"/>
     </defs>
     <use xlink:href="#DejaVuSans-49"/>
     <use xlink:href="#DejaVuSans-6d" x="29.492188"/>
     <use xlink:href="#DejaVuSans-70" x="126.904297"/>
     <use xlink:href="#DejaVuSans-75" x="190.380859"/>
     <use xlink:href="#DejaVuSans-6c" x="253.759766"/>
     <use xlink:href="#DejaVuSans-73" x="281.542969"/>
     <use xlink:href="#DejaVuSans-65" x="333.642578"/>
     <use xlink:href="#DejaVuSans-20" x="395.166016"/>
     <use xlink:href="#DejaVuSans-52" x="426.953125"/>
     <use xlink:href="#DejaVuSans-65" x="491.935547"/>
     <use xlink:href="#DejaVuSans-73" x="553.458984"/>
     <use xlink:href="#DejaVuSans-70" x="605.558594"/>
     <use xlink:href="#DejaVuSans-6f" x="669.035156"/>
     <use xlink:href="#DejaVuSans-6e" x="730.216797"/>
     <use xlink:href="#DejaVuSans-73" x="793.595703"/>
     <use xlink:href="#DejaVuSans-65" x="845.695312"/>
    </g>
   </g>
  </g>
  <g id="axes_2">
   <g id="patch_7">
    <path d="M 38.86 332.12 
L 709.2 332.12 
L 709.2 201.48 
L 38.86 201.48 
z
" style="fill: #ffffff"/>
   </g>
   <g id="matplotlib.axis_3">
    <g id="xtick_9">
     <g id="line2d_15">
      <path d="M 38.86 332.12 
L 38.86 201.48 
" clip-path="url(#p746d3ffb5c)" style="fill: none; stroke: #b0b0b0; stroke-width: 0.8; stroke-linecap: square"/>
     </g>
     <g id="line2d_16">
      <g>
       <use xlink:href="#medab8569d7" x="38.86" y="332.12" style="stroke: #000000; stroke-width: 0.8"/>
      </g>
     </g>
     <g id="text_14">
      <!-- 0 -->
      <g transform="translate(35.67875 346.718437) scale(0.1 -0.1)">
       <use xlink:href="#DejaVuSans-30"/>
      </g>
     </g>
    </g>
    <g id="xtick_10">
     <g id="line2d_17">
      <path d="M 178.514167 332.12 
L 178.514167 201.48 
" clip-path="url(#p746d3ffb5c)" style="fill: none; stroke: #b0b0b0; stroke-width: 0.8; stroke-linecap: square"/>
     </g>
     <g id="line2d_18">
      <g>
       <use xlink:href="#medab8569d7" x="178.514167" y="332.12" style="stroke: #000000; stroke-width: 0.8"/>
      </g>
     </g>
     <g id="text_15">
      <!-- 5000 -->
      <g transform="translate(165.789167 346.718437) scale(0.1 -0.1)">
       <use xlink:href="#DejaVuSans-35"/>
       <use xlink:href="#DejaVuSans-30" x="63.623047"/>
       <use xlink:href="#DejaVuSans-30" x="127.246094"/>
       <use xlink:href="#DejaVuSans-30" x="190.869141"/>
      </g>
     </g>
    </g>
    <g id="xtick_11">
     <g id="line2d_19">
      <path d="M 318.168333 332.12 
L 318.168333 201.48 
" clip-path="url(#p746d3ffb5c)" style="fill: none; stroke: #b0b0b0; stroke-width: 0.8; stroke-linecap: square"/>
     </g>
     <g id="line2d_20">
      <g>
       <use xlink:href="#medab8569d7" x="318.168333" y="332.12" style="stroke: #000000; stroke-width: 0.8"/>
      </g>
     </g>
     <g id="text_16">
      <!-- 10000 -->
      <g transform="translate(302.262083 346.718437) scale(0.1 -0.1)">
       <use xlink:href="#DejaVuSans-31"/>
       <use xlink:href="#DejaVuSans-30" x="63.623047"/>
       <use xlink:href="#DejaVuSans-30" x="127.246094"/>
       <use xlink:href="#DejaVuSans-30" x="190.869141"/>
       <use xlink:href="#DejaVuSans-30" x="254.492188"/>
      </g>
     </g>
    </g>
    <g id="xtick_12">
     <g id="line2d_21">
      <path d="M 457.8225 332.12 
L 457.8225 201.48 
" clip-path="url(#p746d3ffb5c)" style="fill: none; stroke: #b0b0b0; stroke-width: 0.8; stroke-linecap: square"/>
     </g>
     <g id="line2d_22">
      <g>
       <use xlink:href="#medab8569d7" x="457.8225" y="332.12" style="stroke: #000000; stroke-width: 0.8"/>
      </g>
     </g>
     <g id="text_17">
      <!-- 15000 -->
      <g transform="translate(441.91625 346.718437) scale(0.1 -0.1)">
       <use xlink:href="#DejaVuSans-31"/>
       <use xlink:href="#DejaVuSans-35" x="63.623047"/>
       <use xlink:href="#DejaVuSans-30" x="127.246094"/>
       <use xlink:href="#DejaVuSans-30" x="190.869141"/>
       <use xlink:href="#DejaVuSans-30" x="254.492188"/>
      </g>
     </g>
    </g>
    <g id="xtick_13">
     <g id="line2d_23">
      <path d="M 597.476667 332.12 
L 597.476667 201.48 
" clip-path="url(#p746d3ffb5c)" style="fill: none; stroke: #b0b0b0; stroke-width: 0.8; stroke-linecap: square"/>
     </g>
     <g id="line2d_24">
      <g>
       <use xlink:href="#medab8569d7" x="597.476667" y="332.12" style="stroke: #000000; stroke-width: 0.8"/>
      </g>
     </g>
     <g id="text_18">
      <!-- 20000 -->
      <g transform="translate(581.570417 346.718437) scale(0.1 -0.1)">
       <use xlink:href="#DejaVuSans-32"/>
       <use xlink:href="#DejaVuSans-30" x="63.623047"/>
       <use xlink:href="#DejaVuSans-30" x="127.246094"/>
       <use xlink:href="#DejaVuSans-30" x="190.869141"/>
       <use xlink:href="#DejaVuSans-30" x="254.492188"/>
      </g>
     </g>
    </g>
   </g>
   <g id="matplotlib.axis_4">
    <g id="ytick_5">
     <g id="line2d_25">
      <path d="M 38.86 318.072688 
L 709.2 318.072688 
" clip-path="url(#p746d3ffb5c)" style="fill: none; stroke: #b0b0b0; stroke-width: 0.8; stroke-linecap: square"/>
     </g>
     <g id="line2d_26">
      <g>
       <use xlink:href="#mecbd645088" x="38.86" y="318.072688" style="stroke: #000000; stroke-width: 0.8"/>
      </g>
     </g>
     <g id="text_19">
      <!-- −80 -->
      <g transform="translate(10.755313 321.871907) scale(0.1 -0.1)">
       <defs>
        <path id="DejaVuSans-2212" d="M 678 2272 
L 4684 2272 
L 4684 1741 
L 678 1741 
L 678 2272 
z
" transform="scale(0.015625)"/>
        <path id="DejaVuSans-38" d="M 2034 2216 
Q 1584 2216 1326 1975 
Q 1069 1734 1069 1313 
Q 1069 891 1326 650 
Q 1584 409 2034 409 
Q 2484 409 2743 651 
Q 3003 894 3003 1313 
Q 3003 1734 2745 1975 
Q 2488 2216 2034 2216 
z
M 1403 2484 
Q 997 2584 770 2862 
Q 544 3141 544 3541 
Q 544 4100 942 4425 
Q 1341 4750 2034 4750 
Q 2731 4750 3128 4425 
Q 3525 4100 3525 3541 
Q 3525 3141 3298 2862 
Q 3072 2584 2669 2484 
Q 3125 2378 3379 2068 
Q 3634 1759 3634 1313 
Q 3634 634 3220 271 
Q 2806 -91 2034 -91 
Q 1263 -91 848 271 
Q 434 634 434 1313 
Q 434 1759 690 2068 
Q 947 2378 1403 2484 
z
M 1172 3481 
Q 1172 3119 1398 2916 
Q 1625 2713 2034 2713 
Q 2441 2713 2670 2916 
Q 2900 3119 2900 3481 
Q 2900 3844 2670 4047 
Q 2441 4250 2034 4250 
Q 1625 4250 1398 4047 
Q 1172 3844 1172 3481 
z
" transform="scale(0.015625)"/>
       </defs>
       <use xlink:href="#DejaVuSans-2212"/>
       <use xlink:href="#DejaVuSans-38" x="83.789062"/>
       <use xlink:href="#DejaVuSans-30" x="147.412109"/>
      </g>
     </g>
    </g>
    <g id="ytick_6">
     <g id="line2d_27">
      <path d="M 38.86 289.978065 
L 709.2 289.978065 
" clip-path="url(#p746d3ffb5c)" style="fill: none; stroke: #b0b0b0; stroke-width: 0.8; stroke-linecap: square"/>
     </g>
     <g id="line2d_28">
      <g>
       <use xlink:href="#mecbd645088" x="38.86" y="289.978065" style="stroke: #000000; stroke-width: 0.8"/>
      </g>
     </g>
     <g id="text_20">
      <!-- −60 -->
      <g transform="translate(10.755313 293.777283) scale(0.1 -0.1)">
       <defs>
        <path id="DejaVuSans-36" d="M 2113 2584 
Q 1688 2584 1439 2293 
Q 1191 2003 1191 1497 
Q 1191 994 1439 701 
Q 1688 409 2113 409 
Q 2538 409 2786 701 
Q 3034 994 3034 1497 
Q 3034 2003 2786 2293 
Q 2538 2584 2113 2584 
z
M 3366 4563 
L 3366 3988 
Q 3128 4100 2886 4159 
Q 2644 4219 2406 4219 
Q 1781 4219 1451 3797 
Q 1122 3375 1075 2522 
Q 1259 2794 1537 2939 
Q 1816 3084 2150 3084 
Q 2853 3084 3261 2657 
Q 3669 2231 3669 1497 
Q 3669 778 3244 343 
Q 2819 -91 2113 -91 
Q 1303 -91 875 529 
Q 447 1150 447 2328 
Q 447 3434 972 4092 
Q 1497 4750 2381 4750 
Q 2619 4750 2861 4703 
Q 3103 4656 3366 4563 
z
" transform="scale(0.015625)"/>
       </defs>
       <use xlink:href="#DejaVuSans-2212"/>
       <use xlink:href="#DejaVuSans-36" x="83.789062"/>
       <use xlink:href="#DejaVuSans-30" x="147.412109"/>
      </g>
     </g>
    </g>
    <g id="ytick_7">
     <g id="line2d_29">
      <path d="M 38.86 261.883441 
L 709.2 261.883441 
" clip-path="url(#p746d3ffb5c)" style="fill: none; stroke: #b0b0b0; stroke-width: 0.8; stroke-linecap: square"/>
     </g>
     <g id="line2d_30">
      <g>
       <use xlink:href="#mecbd645088" x="38.86" y="261.883441" style="stroke: #000000; stroke-width: 0.8"/>
      </g>
     </g>
     <g id="text_21">
      <!-- −40 -->
      <g transform="translate(10.755313 265.68266) scale(0.1 -0.1)">
       <defs>
        <path id="DejaVuSans-34" d="M 2419 4116 
L 825 1625 
L 2419 1625 
L 2419 4116 
z
M 2253 4666 
L 3047 4666 
L 3047 1625 
L 3713 1625 
L 3713 1100 
L 3047 1100 
L 3047 0 
L 2419 0 
L 2419 1100 
L 313 1100 
L 313 1709 
L 2253 4666 
z
" transform="scale(0.015625)"/>
       </defs>
       <use xlink:href="#DejaVuSans-2212"/>
       <use xlink:href="#DejaVuSans-34" x="83.789062"/>
       <use xlink:href="#DejaVuSans-30" x="147.412109"/>
      </g>
     </g>
    </g>
    <g id="ytick_8">
     <g id="line2d_31">
      <path d="M 38.86 233.788817 
L 709.2 233.788817 
" clip-path="url(#p746d3ffb5c)" style="fill: none; stroke: #b0b0b0; stroke-width: 0.8; stroke-linecap: square"/>
     </g>
     <g id="line2d_32">
      <g>
       <use xlink:href="#mecbd645088" x="38.86" y="233.788817" style="stroke: #000000; stroke-width: 0.8"/>
      </g>
     </g>
     <g id="text_22">
      <!-- −20 -->
      <g transform="translate(10.755313 237.588036) scale(0.1 -0.1)">
       <use xlink:href="#DejaVuSans-2212"/>
       <use xlink:href="#DejaVuSans-32" x="83.789062"/>
       <use xlink:href="#DejaVuSans-30" x="147.412109"/>
      </g>
     </g>
    </g>
    <g id="ytick_9">
     <g id="line2d_33">
      <path d="M 38.86 205.694194 
L 709.2 205.694194 
" clip-path="url(#p746d3ffb5c)" style="fill: none; stroke: #b0b0b0; stroke-width: 0.8; stroke-linecap: square"/>
     </g>
     <g id="line2d_34">
      <g>
       <use xlink:href="#mecbd645088" x="38.86" y="205.694194" style="stroke: #000000; stroke-width: 0.8"/>
      </g>
     </g>
     <g id="text_23">
      <!-- 0 -->
      <g transform="translate(25.4975 209.493412) scale(0.1 -0.1)">
       <use xlink:href="#DejaVuSans-30"/>
      </g>
     </g>
    </g>
   </g>
   <g id="line2d_35">
    <path d="M 38.86 205.727482 
L 209.063516 205.779544 
L 216.919063 206.069773 
L 223.465352 206.512751 
L 230.011641 207.1914 
L 235.248672 207.936449 
L 240.485703 208.887393 
L 245.722734 210.068398 
L 250.959766 211.504293 
L 256.196797 213.221479 
L 260.12457 214.711379 
L 264.052344 216.38968 
L 267.980117 218.272107 
L 271.907891 220.376913 
L 275.835664 222.725768 
L 279.763438 225.344988 
L 283.691211 228.267325 
L 287.618984 231.534671 
L 291.546758 235.202348 
L 294.165273 237.906209 
L 296.783789 240.85111 
L 299.402305 244.076342 
L 302.02082 247.635119 
L 304.639336 251.602691 
L 307.257852 256.091741 
L 309.876367 261.284881 
L 311.185625 264.239131 
L 312.494883 267.514604 
L 313.804141 271.214843 
L 315.113398 275.512933 
L 316.422656 280.735522 
L 317.731914 287.633576 
L 319.041172 298.783687 
L 320.35043 322.920421 
L 321.659688 299.216516 
L 322.968945 293.655523 
L 324.278203 291.279559 
L 325.587461 290.42335 
L 326.896719 290.570495 
L 328.205977 291.542338 
L 329.515234 293.333301 
L 330.824492 296.105104 
L 332.13375 300.327743 
L 333.443008 307.458159 
L 334.752266 327.620665 
L 336.061523 313.709898 
L 337.370781 303.84427 
L 338.680039 298.860781 
L 339.989297 295.722356 
L 341.298555 293.607344 
L 342.607813 292.17403 
L 343.91707 291.250607 
L 345.226328 290.742647 
L 346.535586 290.597893 
L 347.844844 290.791249 
L 349.154102 291.318793 
L 350.463359 292.197194 
L 351.772617 293.468267 
L 353.081875 295.211367 
L 354.391133 297.572465 
L 355.700391 300.838256 
L 357.009648 305.669259 
L 358.318906 314.22166 
L 359.628164 357.471751 
L 360.937422 313.644047 
L 362.24668 305.538133 
L 363.555938 300.915932 
L 364.865195 297.787755 
L 366.174453 295.521741 
L 367.483711 293.836063 
L 368.792969 292.581743 
L 370.102227 291.672019 
L 371.411484 291.053737 
L 372.720742 290.694105 
L 374.03 290.574083 
L 375.339258 290.685114 
L 376.648516 291.027805 
L 377.957773 291.612111 
L 379.267031 292.459065 
L 380.576289 293.604721 
L 381.885547 295.108027 
L 383.194805 297.06684 
L 384.504063 299.653555 
L 385.81332 303.207333 
L 387.122578 308.541568 
L 388.431836 318.656323 
L 389.741094 333.207052 
L 391.050352 312.94279 
L 392.359609 305.835822 
L 393.668867 301.528791 
L 394.978125 298.518036 
L 396.287383 296.278347 
L 397.596641 294.564694 
L 398.905898 293.243769 
L 400.215156 292.236056 
L 401.524414 291.491488 
L 402.833672 290.977835 
L 404.14293 290.674685 
L 405.452188 290.570226 
L 406.761445 290.659589 
L 408.070703 290.944227 
L 409.379961 291.432132 
L 410.689219 292.138971 
L 411.998477 293.090471 
L 413.307734 294.326916 
L 414.616992 295.911643 
L 415.92625 297.948089 
L 417.235508 300.617803 
L 418.544766 304.279992 
L 419.854023 309.811372 
L 422.472539 330.726634 
L 423.781797 313.01821 
L 425.091055 306.194472 
L 426.400313 301.978923 
L 427.70957 298.99778 
L 429.018828 296.757058 
L 430.328086 295.022899 
L 431.637344 293.666815 
L 432.946602 292.611488 
L 434.255859 291.80773 
L 435.565117 291.223365 
L 436.874375 290.837403 
L 438.183633 290.636838 
L 439.492891 290.614913 
L 440.802148 290.770287 
L 442.111406 291.106883 
L 443.420664 291.634387 
L 444.729922 292.36951 
L 446.03918 293.338408 
L 447.348438 294.58106 
L 448.657695 296.159412 
L 449.966953 298.173536 
L 451.276211 300.797229 
L 452.585469 304.369779 
L 453.894727 309.701048 
L 455.203984 319.762269 
L 456.513242 334.69914 
L 457.8225 314.158942 
L 459.131758 306.989388 
L 460.441016 302.624748 
L 461.750273 299.550089 
L 463.059531 297.237437 
L 464.368789 295.440517 
L 465.678047 294.025095 
L 466.987305 292.91069 
L 468.296563 292.046062 
L 469.60582 291.397478 
L 470.915078 290.942561 
L 472.224336 290.666894 
L 473.533594 290.562112 
L 474.842852 290.624904 
L 476.152109 290.856633 
L 477.461367 291.263507 
L 478.770625 291.85731 
L 480.079883 292.656916 
L 481.389141 293.691008 
L 482.698398 295.002951 
L 484.007656 296.659863 
L 485.316914 298.770846 
L 486.626172 301.527962 
L 487.93543 305.315325 
L 489.244688 311.093036 
L 490.553945 322.857024 
L 491.863203 328.399869 
L 493.172461 312.907555 
L 494.481719 306.395965 
L 495.790977 302.291582 
L 497.100234 299.355273 
L 498.409492 297.126865 
L 499.71875 295.384866 
L 501.028008 294.006233 
L 502.337266 292.916243 
L 503.646523 292.066885 
L 504.955781 291.426325 
L 506.265039 290.973316 
L 507.574297 290.694076 
L 508.883555 290.580521 
L 510.192813 290.629326 
L 511.50207 290.841552 
L 512.811328 291.222776 
L 514.120586 291.78372 
L 515.429844 292.541571 
L 516.739102 293.522337 
L 518.048359 294.765018 
L 519.357617 296.329243 
L 520.666875 298.310226 
L 521.976133 300.871223 
L 523.285391 304.325427 
L 524.594648 309.39869 
L 525.903906 318.569758 
L 527.213164 343.186936 
L 528.522422 315.715146 
L 529.83168 308.005091 
L 531.140938 303.428799 
L 532.450195 300.232164 
L 533.759453 297.83301 
L 535.068711 295.965892 
L 536.377969 294.487969 
L 537.687227 293.314198 
L 538.996484 292.390573 
L 540.305742 291.681438 
L 541.615 291.162883 
L 542.924258 290.819093 
L 544.233516 290.640259 
L 545.542773 290.621424 
L 546.852031 290.761935 
L 548.161289 291.065378 
L 549.470547 291.539968 
L 550.779805 292.199504 
L 552.089063 293.065128 
L 553.39832 294.168408 
L 554.707578 295.556843 
L 556.016836 297.304214 
L 557.326094 299.531731 
L 558.635352 302.4569 
L 559.944609 306.529312 
L 561.253867 312.947486 
L 562.563125 327.841002 
L 563.872383 323.719428 
L 565.181641 311.599632 
L 566.490898 305.738425 
L 567.800156 301.910483 
L 569.109414 299.125675 
L 570.418672 296.991096 
L 571.72793 295.310996 
L 573.037188 293.974286 
L 574.346445 292.912513 
L 575.655703 292.081232 
L 576.964961 291.450735 
L 578.274219 291.00106 
L 579.583477 290.719172 
L 580.892734 290.597347 
L 582.201992 290.632305 
L 583.51125 290.824855 
L 584.820508 291.179988 
L 586.129766 291.707417 
L 587.439023 292.42272 
L 588.748281 293.349361 
L 590.057539 294.522242 
L 591.366797 295.994077 
L 592.676055 297.847573 
L 593.985313 300.220967 
L 595.29457 303.369247 
L 596.603828 307.844688 
L 597.913086 315.267261 
L 599.222344 338.40853 
L 600.531602 319.591932 
L 601.840859 309.966667 
L 603.150117 304.755598 
L 604.459375 301.232143 
L 605.768633 298.626765 
L 607.077891 296.612296 
L 608.387148 295.019514 
L 609.696406 293.750117 
L 611.005664 292.742604 
L 612.314922 291.956662 
L 613.62418 291.365217 
L 614.933438 290.950099 
L 616.242695 290.699566 
L 617.551953 290.60689 
L 618.861211 290.669617 
L 620.170469 290.889309 
L 621.479727 291.271706 
L 622.788984 291.827356 
L 624.098242 292.57286 
L 625.4075 293.533065 
L 626.716758 294.744904 
L 628.026016 296.264332 
L 629.335273 298.179726 
L 630.644531 300.640407 
L 631.953789 303.926602 
L 633.263047 308.663629 
L 634.572305 316.808859 
L 635.881563 356.76463 
L 637.19082 317.761923 
L 638.500078 309.133105 
L 639.809336 304.231788 
L 641.118594 300.860906 
L 642.427852 298.347186 
L 643.737109 296.39437 
L 645.046367 294.846216 
L 646.355625 293.610831 
L 647.664883 292.630253 
L 648.974141 291.866283 
L 650.283398 291.293198 
L 651.592656 290.893729 
L 652.901914 290.656769 
L 654.211172 290.576052 
L 655.52043 290.649478 
L 656.829688 290.878888 
L 658.138945 291.27026 
L 659.448203 291.834358 
L 660.757461 292.587999 
L 662.066719 293.556272 
L 663.375977 294.776416 
L 664.685234 296.304833 
L 665.994492 298.230637 
L 667.30375 300.704559 
L 668.613008 304.010022 
L 669.922266 308.781759 
L 671.231523 317.022923 
L 672.47881 361 
M 672.603523 361 
L 673.850039 317.590111 
L 675.159297 309.065767 
L 676.468555 304.199825 
L 677.777813 300.847348 
L 679.08707 298.345244 
L 680.396328 296.400623 
L 681.705586 294.858688 
L 683.014844 293.628276 
L 684.324102 292.651839 
L 685.633359 291.891434 
L 686.942617 291.321509 
L 688.251875 290.924923 
L 689.561133 290.690665 
L 690.870391 290.612557 
L 692.179648 290.688579 
L 693.488906 290.920657 
L 694.798164 291.314866 
L 696.107422 291.88209 
L 697.41668 292.639305 
L 698.725938 293.611831 
L 700.035195 294.837254 
L 701.344453 296.372547 
L 702.653711 298.307839 
L 703.962969 300.795876 
L 705.272227 304.124763 
L 706.581484 308.943201 
L 707.890742 317.323518 
L 707.890742 317.323518 
" clip-path="url(#p746d3ffb5c)" style="fill: none; stroke: #ff0000; stroke-width: 1.5; stroke-linecap: square"/>
   </g>
   <g id="line2d_36">
    <path d="M 38.86 205.660821 
L 206.445 205.660821 
" clip-path="url(#p746d3ffb5c)" style="fill: none; stroke-dasharray: 3.7,1.6; stroke-dashoffset: 0; stroke: #0000ff"/>
   </g>
   <g id="line2d_37">
    <path d="M 38.86 205.727482 
L 206.445 205.727482 
" clip-path="url(#p746d3ffb5c)" style="fill: none; stroke-dasharray: 3.7,1.6; stroke-dashoffset: 0; stroke: #0000ff"/>
   </g>
   <g id="line2d_38">
    <path d="M 318.168333 290.42335 
L 709.2 290.42335 
" clip-path="url(#p746d3ffb5c)" style="fill: none; stroke-dasharray: 3.7,1.6; stroke-dashoffset: 0; stroke: #0000ff"/>
   </g>
   <g id="patch_8">
    <path d="M 38.86 332.12 
L 38.86 201.48 
" style="fill: none; stroke: #000000; stroke-width: 0.8; stroke-linejoin: miter; stroke-linecap: square"/>
   </g>
   <g id="patch_9">
    <path d="M 709.2 332.12 
L 709.2 201.48 
" style="fill: none; stroke: #000000; stroke-width: 0.8; stroke-linejoin: miter; stroke-linecap: square"/>
   </g>
   <g id="patch_10">
    <path d="M 38.86 332.12 
L 709.2 332.12 
" style="fill: none; stroke: #000000; stroke-width: 0.8; stroke-linejoin: miter; stroke-linecap: square"/>
   </g>
   <g id="patch_11">
    <path d="M 38.86 201.48 
L 709.2 201.48 
" style="fill: none; stroke: #000000; stroke-width: 0.8; stroke-linejoin: miter; stroke-linecap: square"/>
   </g>
   <g id="text_24">
    <!-- Frequency Reponse -->
    <g transform="translate(315.43625 195.48) scale(0.12 -0.12)">
     <defs>
      <path id="DejaVuSans-46" d="M 628 4666 
L 3309 4666 
L 3309 4134 
L 1259 4134 
L 1259 2759 
L 3109 2759 
L 3109 2228 
L 1259 2228 
L 1259 0 
L 628 0 
L 628 4666 
z
" transform="scale(0.015625)"/>
      <path id="DejaVuSans-72" d="M 2631 2963 
Q 2534 3019 2420 3045 
Q 2306 3072 2169 3072 
Q 1681 3072 1420 2755 
Q 1159 2438 1159 1844 
L 1159 0 
L 581 0 
L 581 3500 
L 1159 3500 
L 1159 2956 
Q 1341 3275 1631 3429 
Q 1922 3584 2338 3584 
Q 2397 3584 2469 3576 
Q 2541 3569 2628 3553 
L 2631 2963 
z
" transform="scale(0.015625)"/>
      <path id="DejaVuSans-71" d="M 947 1747 
Q 947 1113 1208 752 
Q 1469 391 1925 391 
Q 2381 391 2643 752 
Q 2906 1113 2906 1747 
Q 2906 2381 2643 2742 
Q 2381 3103 1925 3103 
Q 1469 3103 1208 2742 
Q 947 2381 947 1747 
z
M 2906 525 
Q 2725 213 2448 61 
Q 2172 -91 1784 -91 
Q 1150 -91 751 415 
Q 353 922 353 1747 
Q 353 2572 751 3078 
Q 1150 3584 1784 3584 
Q 2172 3584 2448 3432 
Q 2725 3281 2906 2969 
L 2906 3500 
L 3481 3500 
L 3481 -1331 
L 2906 -1331 
L 2906 525 
z
" transform="scale(0.015625)"/>
      <path id="DejaVuSans-63" d="M 3122 3366 
L 3122 2828 
Q 2878 2963 2633 3030 
Q 2388 3097 2138 3097 
Q 1578 3097 1268 2742 
Q 959 2388 959 1747 
Q 959 1106 1268 751 
Q 1578 397 2138 397 
Q 2388 397 2633 464 
Q 2878 531 3122 666 
L 3122 134 
Q 2881 22 2623 -34 
Q 2366 -91 2075 -91 
Q 1284 -91 818 406 
Q 353 903 353 1747 
Q 353 2603 823 3093 
Q 1294 3584 2113 3584 
Q 2378 3584 2631 3529 
Q 2884 3475 3122 3366 
z
" transform="scale(0.015625)"/>
      <path id="DejaVuSans-79" d="M 2059 -325 
Q 1816 -950 1584 -1140 
Q 1353 -1331 966 -1331 
L 506 -1331 
L 506 -850 
L 844 -850 
Q 1081 -850 1212 -737 
Q 1344 -625 1503 -206 
L 1606 56 
L 191 3500 
L 800 3500 
L 1894 763 
L 2988 3500 
L 3597 3500 
L 2059 -325 
z
" transform="scale(0.015625)"/>
     </defs>
     <use xlink:href="#DejaVuSans-46"/>
     <use xlink:href="#DejaVuSans-72" x="50.269531"/>
     <use xlink:href="#DejaVuSans-65" x="89.132812"/>
     <use xlink:href="#DejaVuSans-71" x="150.65625"/>
     <use xlink:href="#DejaVuSans-75" x="214.132812"/>
     <use xlink:href="#DejaVuSans-65" x="277.511719"/>
     <use xlink:href="#DejaVuSans-6e" x="339.035156"/>
     <use xlink:href="#DejaVuSans-63" x="402.414062"/>
     <use xlink:href="#DejaVuSans-79" x="457.394531"/>
     <use xlink:href="#DejaVuSans-20" x="516.574219"/>
     <use xlink:href="#DejaVuSans-52" x="548.361328"/>
     <use xlink:href="#DejaVuSans-65" x="613.34375"/>
     <use xlink:href="#DejaVuSans-70" x="674.867188"/>
     <use xlink:href="#DejaVuSans-6f" x="738.34375"/>
     <use xlink:href="#DejaVuSans-6e" x="799.525391"/>
     <use xlink:href="#DejaVuSans-73" x="862.904297"/>
     <use xlink:href="#DejaVuSans-65" x="915.003906"/>
    </g>
   </g>
  </g>
 </g>
 <defs>
  <clipPath id="p095d27016d">
   <rect x="38.86" y="26.88" width="670.34" height="130.64"/>
  </clipPath>
  <clipPath id="p746d3ffb5c">
   <rect x="38.86" y="201.48" width="670.34" height="130.64"/>
  </clipPath>
 </defs>
</svg>
